<svg xmlns="http://www.w3.org/2000/svg" xmlns:xlink="http://www.w3.org/1999/xlink" width="500" zoomAndPan="magnify" viewBox="0 0 375 374.999991" height="500" preserveAspectRatio="xMidYMid meet" version="1.0"><defs><filter x="0%" y="0%" width="100%" height="100%" id="8dc146f1e3"><feColorMatrix values="0 0 0 0 1 0 0 0 0 1 0 0 0 0 1 0 0 0 1 0" color-interpolation-filters="sRGB"/></filter><g/><mask id="88b0edc8a2"><g filter="url(#8dc146f1e3)"><rect x="-37.5" width="450" fill="#000000" y="-37.499999" height="449.999989" fill-opacity="0.749"/></g></mask><clipPath id="f5d0cafd81"><path d="M 0.921875 0.601562 L 337.152344 0.601562 L 337.152344 333.550781 L 0.921875 333.550781 Z M 0.921875 0.601562 " clip-rule="nonzero"/></clipPath><mask id="5658385f97"><g filter="url(#8dc146f1e3)"><rect x="-101.5" width="540" fill="#000000" y="-103.499998" height="539.999987" fill-opacity="0.8"/></g></mask><clipPath id="7c687b6082"><path d="M 85 310 L 159 310 L 159 333.550781 L 85 333.550781 Z M 85 310 " clip-rule="nonzero"/></clipPath><clipPath id="26fc7c73ba"><rect x="0" width="338" y="0" height="334"/></clipPath><clipPath id="8153a84c47"><rect x="0" width="339" y="0" height="335"/></clipPath></defs><path fill="#07c5bf" d="M 187.5 0 C 83.945312 0 0 83.945312 0 187.5 C 0 291.054688 83.945312 375 187.5 375 C 291.054688 375 375 291.054688 375 187.5 C 375 83.945312 291.054688 0 187.5 0 " fill-opacity="1" fill-rule="nonzero"/><g mask="url(#88b0edc8a2)"><g transform="matrix(1, 0, 0, 1, 19, 21)"><g clip-path="url(#8153a84c47)"><g clip-path="url(#f5d0cafd81)"><g mask="url(#5658385f97)"><g><g clip-path="url(#26fc7c73ba)"><path fill="#737373" d="M 311.011719 131.378906 C 304.839844 112.972656 295.242188 95.804688 282.765625 81.109375 C 270.285156 66.277344 254.925781 53.914062 237.648438 44.988281 C 220.371094 35.921875 201.175781 30.429688 181.429688 28.917969 C 161.683594 27.40625 141.523438 29.742188 122.601562 36.472656 C 122.601562 36.609375 122.601562 36.746094 122.328125 37.019531 C 121.777344 37.570312 120.683594 38.257812 119.3125 38.808594 C 117.941406 39.492188 116.429688 40.042969 114.921875 40.59375 C 106.558594 43.613281 98.46875 47.597656 90.652344 52.128906 C 76.664062 61.332031 64.597656 73.144531 54.726562 86.464844 C 56.644531 83.71875 58.839844 81.246094 60.894531 78.636719 C 63.089844 76.164062 65.285156 73.691406 67.613281 71.359375 C 72.140625 66.550781 77.214844 62.292969 82.425781 58.445312 C 83.933594 57.210938 85.441406 56.25 86.539062 55.699219 C 87.636719 55.152344 88.320312 55.011719 88.457031 55.425781 C 88.457031 55.835938 87.910156 56.523438 86.8125 57.625 C 85.851562 58.722656 84.34375 59.957031 82.835938 61.195312 C 69.125 72.042969 56.917969 86.464844 48.007812 102.125 C 38.957031 117.78125 33.195312 134.675781 29.496094 150.058594 C 26.890625 170.109375 28.808594 190.574219 34.703125 209.390625 C 40.601562 228.207031 50.613281 245.511719 63.363281 259.660156 C 76.117188 273.804688 91.75 285.066406 108.476562 292.484375 C 125.207031 299.902344 143.171875 303.609375 160.585938 303.746094 C 161.957031 303.746094 163.601562 303.882812 164.289062 304.160156 C 165.246094 304.433594 164.972656 304.707031 163.738281 304.707031 C 145.5 305.53125 126.167969 302.375 107.65625 294.542969 C 98.46875 290.5625 89.417969 285.617188 81.054688 279.4375 C 72.6875 273.257812 64.734375 265.976562 57.742188 257.734375 C 50.75 249.496094 44.578125 240.429688 39.640625 230.402344 C 34.703125 220.515625 30.726562 209.941406 28.121094 198.816406 C 25.65625 187.691406 24.421875 176.289062 24.558594 164.617188 L 24.558594 162.417969 L 24.695312 160.21875 L 24.96875 155.824219 C 25.242188 152.941406 25.519531 150.058594 25.929688 147.171875 C 26.890625 141.402344 27.847656 135.636719 29.496094 130.003906 L 30.589844 125.882812 L 31.960938 121.761719 C 32.785156 119.015625 33.882812 116.40625 34.980469 113.796875 C 27.984375 128.632812 23.460938 145.113281 21.953125 162.554688 C 22.363281 164.339844 22.5 167.226562 22.5 170.660156 C 22.773438 178.898438 23.734375 187.003906 25.242188 194.96875 C 25.242188 194.558594 25.378906 194.417969 25.519531 194.28125 C 26.066406 194.28125 27.027344 197.167969 27.710938 200.601562 C 31.960938 220.515625 40.464844 239.332031 52.394531 255.8125 C 52.667969 256.226562 52.941406 256.636719 53.21875 256.910156 C 68.574219 276.828125 89.007812 292.757812 111.90625 302.375 C 134.804688 312.261719 160.035156 315.832031 184.582031 313.085938 C 186.089844 312.949219 187.597656 312.675781 189.109375 312.535156 C 190.617188 312.261719 192.125 312.125 193.632812 311.851562 L 198.15625 310.886719 L 200.488281 310.476562 L 202.683594 309.925781 L 207.207031 308.828125 L 211.597656 307.453125 C 214.613281 306.632812 217.355469 305.394531 220.371094 304.433594 C 226.132812 302.097656 231.753906 299.761719 237.101562 296.742188 C 239.84375 295.367188 242.449219 293.71875 245.054688 292.210938 C 246.425781 291.386719 247.660156 290.5625 248.894531 289.738281 C 250.128906 288.914062 251.5 288.089844 252.734375 287.128906 C 272.753906 272.84375 288.796875 253.339844 299.21875 231.226562 C 299.628906 229.855469 300.453125 228.070312 301.136719 227.246094 C 301.824219 226.285156 302.097656 226.558594 301.6875 227.933594 C 301.960938 227.933594 302.371094 227.792969 302.234375 228.207031 C 295.925781 245.375 286.464844 261.167969 273.988281 275.042969 C 261.371094 288.777344 245.601562 300.449219 226.679688 308.417969 C 213.652344 313.910156 199.941406 317.480469 185.953125 319.128906 C 200.488281 318.304688 214.339844 315.695312 226.679688 312.261719 C 243.957031 305.257812 260 294.957031 273.578125 282.320312 C 287.152344 269.683594 298.53125 254.988281 307.308594 239.195312 L 306.347656 240.292969 C 307.035156 238.917969 307.859375 237.546875 308.542969 236.585938 C 309.230469 235.625 309.640625 234.9375 309.914062 235.074219 C 310.1875 235.074219 310.1875 235.625 309.914062 236.722656 C 309.640625 237.683594 309.089844 239.058594 308.269531 240.566406 C 304.703125 248.257812 300.453125 255.8125 295.515625 262.953125 C 290.578125 270.097656 284.957031 276.691406 278.925781 283.007812 C 272.753906 289.1875 266.171875 294.957031 259.042969 300.039062 C 251.910156 305.121094 244.230469 309.652344 236.277344 313.5 C 204.328125 329.019531 166.617188 332.726562 131.515625 324.074219 C 113.964844 319.679688 97.097656 312.261719 82.011719 302.097656 C 66.929688 291.933594 53.492188 279.160156 42.519531 264.464844 C 31.550781 249.769531 23.1875 233.011719 17.839844 215.433594 C 12.355469 197.851562 10.296875 179.175781 10.980469 160.632812 C 12.214844 131.242188 22.089844 102.398438 38.679688 78.363281 C 55.136719 54.191406 78.449219 34.960938 105.1875 23.011719 C 109.164062 21.089844 113.003906 20.128906 115.746094 19.441406 C 118.488281 18.890625 120.40625 18.890625 120.546875 19.578125 C 120.683594 20.816406 114.375 23.972656 106.695312 27.542969 C 81.191406 39.082031 59.25 57.761719 43.617188 80.699219 C 27.847656 103.632812 18.386719 130.691406 16.742188 158.574219 C 16.054688 170.796875 16.46875 183.15625 18.660156 195.105469 C 20.71875 207.054688 24.285156 218.867188 28.945312 229.992188 C 21.816406 212.410156 18.386719 193.59375 18.386719 174.917969 C 17.976562 167.773438 18.25 160.632812 18.9375 153.492188 C 19.621094 146.347656 20.992188 139.207031 22.636719 132.066406 C 24.558594 125.058594 26.75 118.054688 29.632812 111.324219 C 32.511719 104.59375 35.800781 98.003906 39.640625 91.683594 C 48.828125 76.300781 60.484375 63.117188 73.785156 52.402344 C 87.085938 41.691406 102.035156 33.175781 118.078125 27.40625 C 133.984375 21.636719 150.851562 18.34375 168.128906 17.792969 C 176.765625 17.519531 185.40625 17.929688 194.042969 19.027344 C 202.683594 20.128906 211.457031 22.050781 219.960938 24.523438 C 236.691406 29.46875 251.5 36.746094 264.800781 45.261719 C 271.382812 49.65625 277.554688 54.328125 283.449219 59.410156 C 289.207031 64.492188 294.695312 69.984375 299.628906 75.753906 C 304.703125 81.519531 309.230469 87.703125 313.34375 94.15625 C 317.457031 100.613281 321.160156 107.617188 324.449219 114.757812 C 327.605469 122.039062 330.347656 129.59375 332.402344 137.558594 C 334.460938 145.523438 335.96875 153.765625 336.789062 162.417969 C 337.066406 165.441406 336.929688 168.875 336.515625 169.972656 C 336.378906 170.519531 336.105469 170.519531 335.832031 169.972656 C 335.558594 169.421875 335.417969 168.324219 335.28125 166.8125 C 332.539062 133.710938 319.789062 103.769531 300.179688 79.734375 C 295.378906 73.691406 289.894531 68.0625 284.136719 62.84375 C 281.253906 60.09375 278.238281 57.761719 275.222656 55.152344 C 273.714844 53.914062 272.066406 52.816406 270.558594 51.578125 C 269.050781 50.34375 267.269531 49.382812 265.761719 48.144531 C 259.179688 43.75 252.320312 39.632812 245.054688 36.195312 C 237.785156 32.761719 230.109375 29.742188 222.292969 27.40625 C 205.425781 22.324219 188.148438 20.128906 171.007812 20.402344 C 153.867188 20.816406 137 23.835938 120.957031 29.605469 C 104.914062 35.375 89.828125 43.75 76.390625 54.601562 C 62.953125 65.453125 51.296875 78.636719 42.109375 93.746094 C 39.640625 97.867188 37.308594 101.984375 35.253906 106.242188 C 38.957031 99.375 43.070312 92.785156 47.730469 86.742188 C 52.394531 80.695312 57.46875 75.066406 62.816406 69.847656 C 83.109375 48.695312 109.300781 34 137.410156 27.683594 C 165.523438 21.363281 195.277344 23.285156 222.566406 33.449219 C 233.125 37.433594 243.273438 42.378906 252.597656 48.421875 C 262.058594 54.464844 270.695312 61.605469 278.511719 69.433594 C 280.570312 71.359375 282.351562 73.554688 284.273438 75.617188 C 286.191406 77.675781 287.835938 79.875 289.621094 82.070312 C 293.046875 86.464844 296.339844 91.136719 299.21875 95.941406 C 304.976562 105.558594 309.777344 115.859375 313.207031 126.84375 C 314.027344 129.59375 314.851562 132.339844 314.988281 134.535156 C 315.261719 136.734375 315.261719 138.382812 314.851562 139.070312 C 314.578125 139.617188 313.890625 139.070312 313.207031 137.695312 C 312.65625 136.320312 311.835938 134.125 311.011719 131.378906 Z M 110.261719 309.652344 C 100.523438 305.945312 91.199219 301.136719 82.425781 295.367188 C 99.289062 307.179688 118.625 315.558594 138.78125 319.816406 C 158.941406 324.074219 180.058594 324.210938 200.351562 320.089844 C 185.40625 322.425781 169.910156 322.835938 154.550781 321.191406 C 139.332031 319.402344 124.246094 315.558594 110.261719 309.652344 Z M 110.261719 309.652344 " fill-opacity="1" fill-rule="nonzero"/><g clip-path="url(#7c687b6082)"><path fill="#737373" d="M 156.609375 332.863281 C 144.269531 331.492188 132.0625 328.605469 120.269531 324.761719 C 108.476562 320.914062 97.234375 316.109375 86.8125 310.886719 C 85.851562 310.339844 85.167969 310.203125 85.578125 310.613281 C 85.988281 311.164062 87.085938 311.851562 88.183594 312.398438 C 98.195312 317.34375 109.164062 322.011719 120.546875 325.585938 C 131.925781 329.292969 143.992188 332.039062 155.785156 333.414062 C 157.15625 333.550781 158.390625 333.550781 158.527344 333.277344 C 158.804688 333.277344 157.84375 333 156.609375 332.863281 Z M 156.609375 332.863281 " fill-opacity="1" fill-rule="nonzero"/></g><path fill="#737373" d="M 72.277344 302.785156 C 56.234375 292.070312 41.699219 278.0625 30.179688 261.445312 C 18.796875 244.824219 10.160156 225.597656 5.632812 205.269531 C 1.109375 184.941406 0.421875 163.515625 3.851562 142.503906 C 7.28125 121.488281 14.960938 101.023438 26.203125 82.894531 C 44.441406 53.226562 71.316406 30.566406 101.894531 16.96875 C 103.816406 16.144531 105.734375 15.183594 107.65625 14.496094 L 113.550781 12.300781 C 117.527344 10.925781 121.503906 9.550781 125.480469 8.589844 C 129.457031 7.355469 133.570312 6.53125 137.6875 5.707031 C 141.800781 5.019531 145.914062 4.195312 150.164062 3.785156 C 154.277344 3.234375 158.527344 2.960938 162.78125 2.683594 C 164.835938 2.546875 167.03125 2.546875 169.085938 2.546875 C 171.144531 2.410156 173.339844 2.546875 175.394531 2.546875 C 177.453125 2.683594 179.644531 2.546875 181.703125 2.683594 C 183.757812 2.820312 185.953125 2.960938 188.011719 3.097656 C 190.066406 3.234375 192.261719 3.507812 194.316406 3.785156 C 195.414062 3.921875 196.375 4.058594 197.472656 4.195312 L 200.625 4.746094 C 211.734375 6.53125 222.703125 9.414062 232.988281 13.125 C 243.410156 16.832031 253.144531 21.363281 262.332031 26.445312 C 263.839844 27.269531 264.9375 27.683594 264.527344 27.132812 C 263.976562 26.445312 262.46875 25.347656 260.6875 24.386719 C 241.488281 13.671875 220.371094 6.394531 198.433594 3.097656 C 176.492188 -0.199219 154.003906 0.625 132.0625 5.570312 C 110.261719 10.511719 89.28125 19.851562 70.90625 33.039062 C 52.804688 45.8125 37.035156 62.566406 25.378906 81.933594 C 14.136719 100.335938 6.457031 120.941406 3.167969 142.226562 C -0.261719 163.515625 0.421875 185.21875 5.085938 205.957031 C 9.75 226.695312 18.523438 246.199219 30.453125 262.953125 C 42.246094 279.710938 57.195312 293.859375 73.648438 304.570312 C 74.472656 305.121094 75.15625 305.257812 74.882812 304.84375 C 74.335938 304.296875 73.101562 303.335938 72.277344 302.785156 Z M 72.277344 302.785156 " fill-opacity="1" fill-rule="nonzero"/><path fill="#737373" d="M 132.75 7.078125 C 121.09375 9.964844 109.710938 14.222656 98.878906 19.578125 C 88.183594 24.933594 77.898438 31.390625 68.574219 38.945312 C 59.113281 46.359375 50.335938 54.875 42.660156 64.078125 C 34.84375 73.417969 27.984375 83.582031 22.089844 94.433594 C 15.644531 106.105469 10.980469 118.605469 7.964844 131.515625 C 4.949219 144.425781 3.441406 157.886719 4.125 171.757812 C 4.398438 180.960938 5.773438 189.75 7.554688 198.402344 C 9.335938 206.917969 11.804688 215.160156 14.683594 223.125 C 16.054688 227.109375 17.839844 231.089844 19.484375 234.9375 C 20.445312 236.859375 21.265625 238.78125 22.226562 240.703125 C 23.1875 242.628906 24.144531 244.550781 25.242188 246.472656 C 29.355469 254.027344 33.882812 261.445312 39.230469 268.722656 C 39.914062 269.683594 40.738281 270.507812 41.148438 270.644531 C 41.285156 270.507812 40.875 269.820312 40.191406 268.859375 C 28.945312 253.066406 20.167969 236.171875 14.136719 218.316406 C 8.238281 200.460938 5.222656 181.507812 5.632812 161.867188 C 5.910156 152.804688 7.003906 143.738281 8.789062 134.8125 C 10.570312 126.160156 13.175781 117.507812 16.46875 109.128906 C 23.050781 92.371094 32.511719 76.988281 43.890625 63.390625 C 67.066406 36.335938 98.332031 16.832031 133.160156 7.765625 C 134.667969 7.355469 135.492188 7.078125 135.492188 6.804688 C 135.355469 6.667969 134.121094 6.804688 132.75 7.078125 Z M 132.75 7.078125 " fill-opacity="1" fill-rule="nonzero"/><path fill="#737373" d="M 32.648438 156.648438 C 31.414062 168.050781 31.550781 179.859375 33.332031 191.398438 C 35.117188 202.933594 38.40625 214.335938 43.207031 224.910156 C 48.007812 235.484375 54.175781 245.101562 61.171875 253.476562 C 68.300781 261.855469 76.253906 268.859375 84.34375 274.492188 C 85.167969 275.042969 85.441406 275.042969 85.03125 274.355469 C 84.617188 273.804688 83.519531 272.84375 82.835938 272.292969 C 74.882812 266.664062 67.203125 259.660156 60.621094 251.28125 C 54.039062 242.902344 48.144531 233.425781 43.753906 223.125 C 39.367188 212.824219 36.214844 201.835938 34.566406 190.710938 C 33.058594 179.585938 32.785156 168.1875 33.882812 157.199219 C 34.019531 155.136719 34.15625 153.214844 33.746094 152.941406 C 33.472656 152.941406 32.921875 154.453125 32.648438 156.648438 Z M 32.648438 156.648438 " fill-opacity="1" fill-rule="nonzero"/><path fill="#737373" d="M 168.949219 329.566406 C 156.609375 329.429688 144.269531 327.78125 132.199219 324.761719 C 120.269531 321.738281 108.617188 317.207031 97.644531 311.574219 C 86.675781 305.945312 76.527344 298.941406 67.066406 291.109375 C 57.742188 283.28125 49.238281 274.355469 41.699219 264.742188 C 28.121094 245.648438 18.660156 223.949219 13.863281 201.148438 C 13.3125 197.851562 12.355469 195.242188 11.941406 195.382812 C 11.394531 195.382812 11.53125 198.265625 12.078125 201.5625 C 14.273438 213.234375 17.839844 224.636719 22.5 235.484375 C 22.226562 235.210938 21.953125 235.210938 21.953125 235.347656 C 4.949219 197.167969 3.441406 152.253906 17.976562 112.699219 C 18.796875 110.5 19.210938 108.851562 18.9375 108.714844 C 18.660156 108.578125 17.703125 110.226562 16.878906 112.425781 C 9.199219 133.027344 5.910156 155.277344 7.003906 177.113281 C 8.101562 198.953125 13.726562 220.515625 23.324219 240.019531 C 23.871094 241.527344 24.695312 243.175781 25.65625 244.960938 C 29.90625 253.066406 34.84375 260.757812 40.464844 267.898438 C 45.949219 275.042969 52.121094 281.632812 58.703125 287.816406 C 71.867188 300.039062 87.085938 310.066406 103.816406 317.480469 C 115.746094 322.699219 128.085938 326.683594 140.566406 329.15625 C 153.179688 331.628906 165.796875 332.589844 178.550781 332.316406 C 191.300781 332.039062 203.917969 330.117188 216.121094 326.683594 C 228.460938 323.25 240.390625 318.441406 251.5 312.125 C 269.1875 302.097656 284.273438 288.226562 297.023438 272.292969 C 302.371094 265.703125 307.445312 258.421875 311.695312 251.144531 C 313.890625 247.433594 315.671875 243.726562 317.457031 240.019531 C 319.101562 236.171875 320.609375 232.464844 321.84375 228.757812 C 328.425781 208.152344 329.523438 188.652344 327.605469 170.519531 C 327.464844 169.421875 327.328125 169.285156 327.191406 170.109375 C 327.054688 170.796875 326.917969 172.308594 327.054688 173.132812 C 327.878906 182.195312 327.878906 191.808594 326.644531 201.5625 C 325.546875 211.175781 323.488281 220.925781 320.882812 229.992188 C 314.027344 247.160156 304.292969 263.09375 292.363281 276.964844 C 280.296875 290.835938 266.171875 302.648438 250.402344 312.125 C 244.09375 315.421875 237.511719 318.304688 230.929688 320.503906 C 224.347656 322.835938 217.628906 324.484375 210.910156 325.996094 C 197.199219 328.46875 183.347656 329.84375 168.949219 329.566406 Z M 168.949219 329.566406 " fill-opacity="1" fill-rule="nonzero"/></g></g></g></g></g></g></g><g fill="#ffffff" fill-opacity="1"><g transform="translate(25.207034, 238.875512)"><g><path d="M 3.601562 -58.398438 C 3.601562 -55 5.398438 -51.597656 9.199219 -51.398438 C 11.398438 -51.199219 13.398438 -50.796875 14.800781 -49.398438 C 18 -46.199219 18 -38.800781 18 -33.199219 L 18 -4.398438 C 18 12 20.800781 24.398438 42.597656 24.398438 C 51.398438 24.398438 51.796875 11 42.597656 11 C 34 11 32.398438 7 32.398438 -4.601562 L 32.398438 -32.597656 C 32.398438 -41.597656 33.398438 -53.796875 22.597656 -58.398438 C 33.398438 -63.199219 32.398438 -74.796875 32.398438 -83.996094 L 32.398438 -113.195312 C 32.398438 -124.796875 34 -128.796875 42.597656 -128.796875 C 51.796875 -128.796875 51.398438 -142.195312 42.597656 -142.195312 C 20.800781 -142.195312 18 -129.796875 18 -113.398438 L 18 -83.398438 C 18 -77.796875 18 -70.398438 14.800781 -67.199219 C 13.398438 -65.796875 11.398438 -65.398438 9.199219 -65.199219 C 5.398438 -65 3.601562 -61.597656 3.601562 -58.398438 Z M 3.601562 -58.398438 "/></g></g></g><g fill="#ffffff" fill-opacity="1"><g transform="translate(77.402343, 238.875512)"><g/></g></g><g fill="#ffffff" fill-opacity="1"><g transform="translate(186.599411, 238.875512)"><g/></g></g><g fill="#ffffff" fill-opacity="1"><g transform="translate(241.197945, 238.875512)"><g/></g></g><g fill="#ffffff" fill-opacity="1"><g transform="translate(295.792958, 238.875512)"><g><path d="M 47.796875 -58.398438 C 47.796875 -61.597656 46 -65 42.199219 -65.199219 C 40 -65.398438 38 -65.796875 36.597656 -67.199219 C 33.398438 -70.398438 33.398438 -77.796875 33.398438 -83.398438 L 33.398438 -113.398438 C 33.398438 -129.796875 30.597656 -142.195312 8.800781 -142.195312 C 0 -142.195312 -0.398438 -128.796875 8.800781 -128.796875 C 17.398438 -128.796875 19 -124.796875 19 -113.195312 L 19 -83.996094 C 19 -74.796875 18 -63.199219 28.800781 -58.398438 C 18 -53.796875 19 -41.597656 19 -32.597656 L 19 -4.601562 C 19 7 17.398438 11 8.800781 11 C -0.398438 11 0 24.398438 8.800781 24.398438 C 30.597656 24.398438 33.398438 12 33.398438 -4.398438 L 33.398438 -33.199219 C 33.398438 -38.800781 33.398438 -46.199219 36.597656 -49.398438 C 38 -50.796875 40 -51.199219 42.199219 -51.398438 C 46 -51.597656 47.796875 -55 47.796875 -58.398438 Z M 47.796875 -58.398438 "/></g></g></g><g fill="#ffffff" fill-opacity="1"><g transform="translate(125.999996, 224.999987)"><g><path d="M -8.679688 114.796875 C -26.597656 114.796875 -18.480469 86.796875 -14 76.996094 C -8.398438 64.675781 -1.398438 52.359375 6.71875 42.277344 L 25.757812 20.71875 C 28.277344 17.917969 30.519531 16.800781 33.039062 14.28125 C 35.558594 11.199219 37.796875 9.800781 40.597656 7.558594 L 56.558594 -4.480469 C 59.636719 -6.160156 62.15625 -7.839844 64.957031 -9.519531 C 64.957031 4.761719 43.398438 64.957031 31.640625 80.355469 C 25.480469 92.675781 4.480469 114.796875 -8.679688 114.796875 Z M 4.199219 -112.277344 C 4.199219 -102.195312 5.039062 -92.957031 9.238281 -86.238281 C 16.238281 -75.597656 23.238281 -74.757812 33.878906 -74.757812 C 37.519531 -74.757812 38.359375 -80.636719 33.039062 -81.757812 C 27.160156 -82.878906 25.480469 -81.757812 21.558594 -85.398438 C 14 -90.4375 12.597656 -100.515625 12.597656 -110.597656 C 12.597656 -137.195312 30.519531 -169.675781 45.636719 -188.992188 C 53.476562 -199.351562 60.199219 -206.074219 65.796875 -206.074219 C 70.277344 -206.074219 74.199219 -201.3125 76.996094 -189.554688 C 81.757812 -171.355469 79.796875 -161.554688 80.636719 -153.433594 C 81.195312 -149.515625 81.476562 -145.875 81.476562 -141.113281 L 78.117188 -90.996094 C 76.996094 -82.597656 76.4375 -74.476562 75.597656 -66.917969 C 74.757812 -60.199219 69.996094 -24.078125 67.476562 -21 L 51.238281 -11.480469 C 33.320312 1.121094 19.597656 13.160156 5.601562 29.957031 C -7.558594 45.636719 -28 76.4375 -28 97.15625 L -28 104.996094 C -28 116.195312 -19.320312 123.195312 -7.28125 123.195312 C 8.121094 123.195312 26.597656 105.835938 35.558594 94.636719 C 59.359375 62.996094 71.675781 25.199219 80.636719 -12.878906 C 83.15625 -22.121094 83.71875 -19.878906 91.277344 -23.238281 C 99.957031 -27.71875 111.714844 -31.640625 121.234375 -34.4375 C 124.59375 -35.277344 151.195312 -43.117188 151.195312 -45.359375 C 151.195312 -47.316406 150.632812 -47.597656 150.074219 -49.558594 C 137.476562 -49.558594 127.675781 -45.359375 115.914062 -41.4375 C 110.316406 -39.199219 105.277344 -37.519531 100.515625 -35.839844 C 95.757812 -34.160156 89.035156 -31.917969 84.835938 -29.679688 L 89.035156 -55.996094 C 92.957031 -81.476562 108.355469 -217.273438 68.597656 -217.273438 C 49.839844 -217.273438 33.039062 -189.832031 24.640625 -174.992188 C 16.238281 -159.875 4.199219 -134.957031 4.199219 -112.277344 Z M 4.199219 -112.277344 "/></g></g></g></svg>