<svg xmlns="http://www.w3.org/2000/svg" xmlns:xlink="http://www.w3.org/1999/xlink" width="500" zoomAndPan="magnify" viewBox="0 0 375 374.999991" height="500" preserveAspectRatio="xMidYMid meet" version="1.0"><defs><filter x="0%" y="0%" width="100%" height="100%" id="42770e9dce"><feColorMatrix values="0 0 0 0 1 0 0 0 0 1 0 0 0 0 1 0 0 0 1 0" color-interpolation-filters="sRGB"/></filter><mask id="ef0e489c03"><g filter="url(#42770e9dce)"><rect x="-37.5" width="450" fill="#000000" y="-37.499999" height="449.999989" fill-opacity="0.749"/></g></mask><clipPath id="c765045fd1"><path d="M 0.921875 0.601562 L 337.152344 0.601562 L 337.152344 333.550781 L 0.921875 333.550781 Z M 0.921875 0.601562 " clip-rule="nonzero"/></clipPath><mask id="e9ab25d086"><g filter="url(#42770e9dce)"><rect x="-101.5" width="540" fill="#000000" y="-103.499998" height="539.999987" fill-opacity="0.8"/></g></mask><clipPath id="c7748ab1f0"><path d="M 85 310 L 159 310 L 159 333.550781 L 85 333.550781 Z M 85 310 " clip-rule="nonzero"/></clipPath><clipPath id="4097ade4c0"><rect x="0" width="338" y="0" height="334"/></clipPath><clipPath id="68bf6c8a15"><rect x="0" width="339" y="0" height="335"/></clipPath><clipPath id="87070ff214"><path d="M 93.832031 66 L 281.332031 66 L 281.332031 311.683594 L 93.832031 311.683594 Z M 93.832031 66 " clip-rule="nonzero"/></clipPath></defs><path fill="#07c5bf" d="M 187.5 0 C 83.945312 0 0 83.945312 0 187.5 C 0 291.054688 83.945312 375 187.5 375 C 291.054688 375 375 291.054688 375 187.5 C 375 83.945312 291.054688 0 187.5 0 " fill-opacity="1" fill-rule="nonzero"/><g mask="url(#ef0e489c03)"><g transform="matrix(1, 0, 0, 1, 19, 21)"><g clip-path="url(#68bf6c8a15)"><g clip-path="url(#c765045fd1)"><g mask="url(#e9ab25d086)"><g><g clip-path="url(#4097ade4c0)"><path fill="#737373" d="M 311.011719 131.378906 C 304.839844 112.972656 295.242188 95.804688 282.765625 81.109375 C 270.285156 66.277344 254.925781 53.914062 237.648438 44.988281 C 220.371094 35.921875 201.175781 30.429688 181.429688 28.917969 C 161.683594 27.40625 141.523438 29.742188 122.601562 36.472656 C 122.601562 36.609375 122.601562 36.746094 122.328125 37.019531 C 121.777344 37.570312 120.683594 38.257812 119.3125 38.808594 C 117.941406 39.492188 116.429688 40.042969 114.921875 40.59375 C 106.558594 43.613281 98.46875 47.597656 90.652344 52.128906 C 76.664062 61.332031 64.597656 73.144531 54.726562 86.464844 C 56.644531 83.71875 58.839844 81.246094 60.894531 78.636719 C 63.089844 76.164062 65.285156 73.691406 67.613281 71.359375 C 72.140625 66.550781 77.214844 62.292969 82.425781 58.445312 C 83.933594 57.210938 85.441406 56.25 86.539062 55.699219 C 87.636719 55.152344 88.320312 55.011719 88.457031 55.425781 C 88.457031 55.835938 87.910156 56.523438 86.8125 57.625 C 85.851562 58.722656 84.34375 59.957031 82.835938 61.195312 C 69.125 72.042969 56.917969 86.464844 48.007812 102.125 C 38.957031 117.78125 33.195312 134.675781 29.496094 150.058594 C 26.890625 170.109375 28.808594 190.574219 34.703125 209.390625 C 40.601562 228.207031 50.613281 245.511719 63.363281 259.660156 C 76.117188 273.804688 91.75 285.066406 108.476562 292.484375 C 125.207031 299.902344 143.171875 303.609375 160.585938 303.746094 C 161.957031 303.746094 163.601562 303.882812 164.289062 304.160156 C 165.246094 304.433594 164.972656 304.707031 163.738281 304.707031 C 145.5 305.53125 126.167969 302.375 107.65625 294.542969 C 98.46875 290.5625 89.417969 285.617188 81.054688 279.4375 C 72.6875 273.257812 64.734375 265.976562 57.742188 257.734375 C 50.75 249.496094 44.578125 240.429688 39.640625 230.402344 C 34.703125 220.515625 30.726562 209.941406 28.121094 198.816406 C 25.65625 187.691406 24.421875 176.289062 24.558594 164.617188 L 24.558594 162.417969 L 24.695312 160.21875 L 24.96875 155.824219 C 25.242188 152.941406 25.519531 150.058594 25.929688 147.171875 C 26.890625 141.402344 27.847656 135.636719 29.496094 130.003906 L 30.589844 125.882812 L 31.960938 121.761719 C 32.785156 119.015625 33.882812 116.40625 34.980469 113.796875 C 27.984375 128.632812 23.460938 145.113281 21.953125 162.554688 C 22.363281 164.339844 22.5 167.226562 22.5 170.660156 C 22.773438 178.898438 23.734375 187.003906 25.242188 194.96875 C 25.242188 194.558594 25.378906 194.417969 25.519531 194.28125 C 26.066406 194.28125 27.027344 197.167969 27.710938 200.601562 C 31.960938 220.515625 40.464844 239.332031 52.394531 255.8125 C 52.667969 256.226562 52.941406 256.636719 53.21875 256.910156 C 68.574219 276.828125 89.007812 292.757812 111.90625 302.375 C 134.804688 312.261719 160.035156 315.832031 184.582031 313.085938 C 186.089844 312.949219 187.597656 312.675781 189.109375 312.535156 C 190.617188 312.261719 192.125 312.125 193.632812 311.851562 L 198.15625 310.886719 L 200.488281 310.476562 L 202.683594 309.925781 L 207.207031 308.828125 L 211.597656 307.453125 C 214.613281 306.632812 217.355469 305.394531 220.371094 304.433594 C 226.132812 302.097656 231.753906 299.761719 237.101562 296.742188 C 239.84375 295.367188 242.449219 293.71875 245.054688 292.210938 C 246.425781 291.386719 247.660156 290.5625 248.894531 289.738281 C 250.128906 288.914062 251.5 288.089844 252.734375 287.128906 C 272.753906 272.84375 288.796875 253.339844 299.21875 231.226562 C 299.628906 229.855469 300.453125 228.070312 301.136719 227.246094 C 301.824219 226.285156 302.097656 226.558594 301.6875 227.933594 C 301.960938 227.933594 302.371094 227.792969 302.234375 228.207031 C 295.925781 245.375 286.464844 261.167969 273.988281 275.042969 C 261.371094 288.777344 245.601562 300.449219 226.679688 308.417969 C 213.652344 313.910156 199.941406 317.480469 185.953125 319.128906 C 200.488281 318.304688 214.339844 315.695312 226.679688 312.261719 C 243.957031 305.257812 260 294.957031 273.578125 282.320312 C 287.152344 269.683594 298.53125 254.988281 307.308594 239.195312 L 306.347656 240.292969 C 307.035156 238.917969 307.859375 237.546875 308.542969 236.585938 C 309.230469 235.625 309.640625 234.9375 309.914062 235.074219 C 310.1875 235.074219 310.1875 235.625 309.914062 236.722656 C 309.640625 237.683594 309.089844 239.058594 308.269531 240.566406 C 304.703125 248.257812 300.453125 255.8125 295.515625 262.953125 C 290.578125 270.097656 284.957031 276.691406 278.925781 283.007812 C 272.753906 289.1875 266.171875 294.957031 259.042969 300.039062 C 251.910156 305.121094 244.230469 309.652344 236.277344 313.5 C 204.328125 329.019531 166.617188 332.726562 131.515625 324.074219 C 113.964844 319.679688 97.097656 312.261719 82.011719 302.097656 C 66.929688 291.933594 53.492188 279.160156 42.519531 264.464844 C 31.550781 249.769531 23.1875 233.011719 17.839844 215.433594 C 12.355469 197.851562 10.296875 179.175781 10.980469 160.632812 C 12.214844 131.242188 22.089844 102.398438 38.679688 78.363281 C 55.136719 54.191406 78.449219 34.960938 105.1875 23.011719 C 109.164062 21.089844 113.003906 20.128906 115.746094 19.441406 C 118.488281 18.890625 120.40625 18.890625 120.546875 19.578125 C 120.683594 20.816406 114.375 23.972656 106.695312 27.542969 C 81.191406 39.082031 59.25 57.761719 43.617188 80.699219 C 27.847656 103.632812 18.386719 130.691406 16.742188 158.574219 C 16.054688 170.796875 16.46875 183.15625 18.660156 195.105469 C 20.71875 207.054688 24.285156 218.867188 28.945312 229.992188 C 21.816406 212.410156 18.386719 193.59375 18.386719 174.917969 C 17.976562 167.773438 18.25 160.632812 18.9375 153.492188 C 19.621094 146.347656 20.992188 139.207031 22.636719 132.066406 C 24.558594 125.058594 26.75 118.054688 29.632812 111.324219 C 32.511719 104.59375 35.800781 98.003906 39.640625 91.683594 C 48.828125 76.300781 60.484375 63.117188 73.785156 52.402344 C 87.085938 41.691406 102.035156 33.175781 118.078125 27.40625 C 133.984375 21.636719 150.851562 18.34375 168.128906 17.792969 C 176.765625 17.519531 185.40625 17.929688 194.042969 19.027344 C 202.683594 20.128906 211.457031 22.050781 219.960938 24.523438 C 236.691406 29.46875 251.5 36.746094 264.800781 45.261719 C 271.382812 49.65625 277.554688 54.328125 283.449219 59.410156 C 289.207031 64.492188 294.695312 69.984375 299.628906 75.753906 C 304.703125 81.519531 309.230469 87.703125 313.34375 94.15625 C 317.457031 100.613281 321.160156 107.617188 324.449219 114.757812 C 327.605469 122.039062 330.347656 129.59375 332.402344 137.558594 C 334.460938 145.523438 335.96875 153.765625 336.789062 162.417969 C 337.066406 165.441406 336.929688 168.875 336.515625 169.972656 C 336.378906 170.519531 336.105469 170.519531 335.832031 169.972656 C 335.558594 169.421875 335.417969 168.324219 335.28125 166.8125 C 332.539062 133.710938 319.789062 103.769531 300.179688 79.734375 C 295.378906 73.691406 289.894531 68.0625 284.136719 62.84375 C 281.253906 60.09375 278.238281 57.761719 275.222656 55.152344 C 273.714844 53.914062 272.066406 52.816406 270.558594 51.578125 C 269.050781 50.34375 267.269531 49.382812 265.761719 48.144531 C 259.179688 43.75 252.320312 39.632812 245.054688 36.195312 C 237.785156 32.761719 230.109375 29.742188 222.292969 27.40625 C 205.425781 22.324219 188.148438 20.128906 171.007812 20.402344 C 153.867188 20.816406 137 23.835938 120.957031 29.605469 C 104.914062 35.375 89.828125 43.75 76.390625 54.601562 C 62.953125 65.453125 51.296875 78.636719 42.109375 93.746094 C 39.640625 97.867188 37.308594 101.984375 35.253906 106.242188 C 38.957031 99.375 43.070312 92.785156 47.730469 86.742188 C 52.394531 80.695312 57.46875 75.066406 62.816406 69.847656 C 83.109375 48.695312 109.300781 34 137.410156 27.683594 C 165.523438 21.363281 195.277344 23.285156 222.566406 33.449219 C 233.125 37.433594 243.273438 42.378906 252.597656 48.421875 C 262.058594 54.464844 270.695312 61.605469 278.511719 69.433594 C 280.570312 71.359375 282.351562 73.554688 284.273438 75.617188 C 286.191406 77.675781 287.835938 79.875 289.621094 82.070312 C 293.046875 86.464844 296.339844 91.136719 299.21875 95.941406 C 304.976562 105.558594 309.777344 115.859375 313.207031 126.84375 C 314.027344 129.59375 314.851562 132.339844 314.988281 134.535156 C 315.261719 136.734375 315.261719 138.382812 314.851562 139.070312 C 314.578125 139.617188 313.890625 139.070312 313.207031 137.695312 C 312.65625 136.320312 311.835938 134.125 311.011719 131.378906 Z M 110.261719 309.652344 C 100.523438 305.945312 91.199219 301.136719 82.425781 295.367188 C 99.289062 307.179688 118.625 315.558594 138.78125 319.816406 C 158.941406 324.074219 180.058594 324.210938 200.351562 320.089844 C 185.40625 322.425781 169.910156 322.835938 154.550781 321.191406 C 139.332031 319.402344 124.246094 315.558594 110.261719 309.652344 Z M 110.261719 309.652344 " fill-opacity="1" fill-rule="nonzero"/><g clip-path="url(#c7748ab1f0)"><path fill="#737373" d="M 156.609375 332.863281 C 144.269531 331.492188 132.0625 328.605469 120.269531 324.761719 C 108.476562 320.914062 97.234375 316.109375 86.8125 310.886719 C 85.851562 310.339844 85.167969 310.203125 85.578125 310.613281 C 85.988281 311.164062 87.085938 311.851562 88.183594 312.398438 C 98.195312 317.34375 109.164062 322.011719 120.546875 325.585938 C 131.925781 329.292969 143.992188 332.039062 155.785156 333.414062 C 157.15625 333.550781 158.390625 333.550781 158.527344 333.277344 C 158.804688 333.277344 157.84375 333 156.609375 332.863281 Z M 156.609375 332.863281 " fill-opacity="1" fill-rule="nonzero"/></g><path fill="#737373" d="M 72.277344 302.785156 C 56.234375 292.070312 41.699219 278.0625 30.179688 261.445312 C 18.796875 244.824219 10.160156 225.597656 5.632812 205.269531 C 1.109375 184.941406 0.421875 163.515625 3.851562 142.503906 C 7.28125 121.488281 14.960938 101.023438 26.203125 82.894531 C 44.441406 53.226562 71.316406 30.566406 101.894531 16.96875 C 103.816406 16.144531 105.734375 15.183594 107.65625 14.496094 L 113.550781 12.300781 C 117.527344 10.925781 121.503906 9.550781 125.480469 8.589844 C 129.457031 7.355469 133.570312 6.53125 137.6875 5.707031 C 141.800781 5.019531 145.914062 4.195312 150.164062 3.785156 C 154.277344 3.234375 158.527344 2.960938 162.78125 2.683594 C 164.835938 2.546875 167.03125 2.546875 169.085938 2.546875 C 171.144531 2.410156 173.339844 2.546875 175.394531 2.546875 C 177.453125 2.683594 179.644531 2.546875 181.703125 2.683594 C 183.757812 2.820312 185.953125 2.960938 188.011719 3.097656 C 190.066406 3.234375 192.261719 3.507812 194.316406 3.785156 C 195.414062 3.921875 196.375 4.058594 197.472656 4.195312 L 200.625 4.746094 C 211.734375 6.53125 222.703125 9.414062 232.988281 13.125 C 243.410156 16.832031 253.144531 21.363281 262.332031 26.445312 C 263.839844 27.269531 264.9375 27.683594 264.527344 27.132812 C 263.976562 26.445312 262.46875 25.347656 260.6875 24.386719 C 241.488281 13.671875 220.371094 6.394531 198.433594 3.097656 C 176.492188 -0.199219 154.003906 0.625 132.0625 5.570312 C 110.261719 10.511719 89.28125 19.851562 70.90625 33.039062 C 52.804688 45.8125 37.035156 62.566406 25.378906 81.933594 C 14.136719 100.335938 6.457031 120.941406 3.167969 142.226562 C -0.261719 163.515625 0.421875 185.21875 5.085938 205.957031 C 9.75 226.695312 18.523438 246.199219 30.453125 262.953125 C 42.246094 279.710938 57.195312 293.859375 73.648438 304.570312 C 74.472656 305.121094 75.15625 305.257812 74.882812 304.84375 C 74.335938 304.296875 73.101562 303.335938 72.277344 302.785156 Z M 72.277344 302.785156 " fill-opacity="1" fill-rule="nonzero"/><path fill="#737373" d="M 132.75 7.078125 C 121.09375 9.964844 109.710938 14.222656 98.878906 19.578125 C 88.183594 24.933594 77.898438 31.390625 68.574219 38.945312 C 59.113281 46.359375 50.335938 54.875 42.660156 64.078125 C 34.84375 73.417969 27.984375 83.582031 22.089844 94.433594 C 15.644531 106.105469 10.980469 118.605469 7.964844 131.515625 C 4.949219 144.425781 3.441406 157.886719 4.125 171.757812 C 4.398438 180.960938 5.773438 189.75 7.554688 198.402344 C 9.335938 206.917969 11.804688 215.160156 14.683594 223.125 C 16.054688 227.109375 17.839844 231.089844 19.484375 234.9375 C 20.445312 236.859375 21.265625 238.78125 22.226562 240.703125 C 23.1875 242.628906 24.144531 244.550781 25.242188 246.472656 C 29.355469 254.027344 33.882812 261.445312 39.230469 268.722656 C 39.914062 269.683594 40.738281 270.507812 41.148438 270.644531 C 41.285156 270.507812 40.875 269.820312 40.191406 268.859375 C 28.945312 253.066406 20.167969 236.171875 14.136719 218.316406 C 8.238281 200.460938 5.222656 181.507812 5.632812 161.867188 C 5.910156 152.804688 7.003906 143.738281 8.789062 134.8125 C 10.570312 126.160156 13.175781 117.507812 16.46875 109.128906 C 23.050781 92.371094 32.511719 76.988281 43.890625 63.390625 C 67.066406 36.335938 98.332031 16.832031 133.160156 7.765625 C 134.667969 7.355469 135.492188 7.078125 135.492188 6.804688 C 135.355469 6.667969 134.121094 6.804688 132.75 7.078125 Z M 132.75 7.078125 " fill-opacity="1" fill-rule="nonzero"/><path fill="#737373" d="M 32.648438 156.648438 C 31.414062 168.050781 31.550781 179.859375 33.332031 191.398438 C 35.117188 202.933594 38.40625 214.335938 43.207031 224.910156 C 48.007812 235.484375 54.175781 245.101562 61.171875 253.476562 C 68.300781 261.855469 76.253906 268.859375 84.34375 274.492188 C 85.167969 275.042969 85.441406 275.042969 85.03125 274.355469 C 84.617188 273.804688 83.519531 272.84375 82.835938 272.292969 C 74.882812 266.664062 67.203125 259.660156 60.621094 251.28125 C 54.039062 242.902344 48.144531 233.425781 43.753906 223.125 C 39.367188 212.824219 36.214844 201.835938 34.566406 190.710938 C 33.058594 179.585938 32.785156 168.1875 33.882812 157.199219 C 34.019531 155.136719 34.15625 153.214844 33.746094 152.941406 C 33.472656 152.941406 32.921875 154.453125 32.648438 156.648438 Z M 32.648438 156.648438 " fill-opacity="1" fill-rule="nonzero"/><path fill="#737373" d="M 168.949219 329.566406 C 156.609375 329.429688 144.269531 327.78125 132.199219 324.761719 C 120.269531 321.738281 108.617188 317.207031 97.644531 311.574219 C 86.675781 305.945312 76.527344 298.941406 67.066406 291.109375 C 57.742188 283.28125 49.238281 274.355469 41.699219 264.742188 C 28.121094 245.648438 18.660156 223.949219 13.863281 201.148438 C 13.3125 197.851562 12.355469 195.242188 11.941406 195.382812 C 11.394531 195.382812 11.53125 198.265625 12.078125 201.5625 C 14.273438 213.234375 17.839844 224.636719 22.5 235.484375 C 22.226562 235.210938 21.953125 235.210938 21.953125 235.347656 C 4.949219 197.167969 3.441406 152.253906 17.976562 112.699219 C 18.796875 110.5 19.210938 108.851562 18.9375 108.714844 C 18.660156 108.578125 17.703125 110.226562 16.878906 112.425781 C 9.199219 133.027344 5.910156 155.277344 7.003906 177.113281 C 8.101562 198.953125 13.726562 220.515625 23.324219 240.019531 C 23.871094 241.527344 24.695312 243.175781 25.65625 244.960938 C 29.90625 253.066406 34.84375 260.757812 40.464844 267.898438 C 45.949219 275.042969 52.121094 281.632812 58.703125 287.816406 C 71.867188 300.039062 87.085938 310.066406 103.816406 317.480469 C 115.746094 322.699219 128.085938 326.683594 140.566406 329.15625 C 153.179688 331.628906 165.796875 332.589844 178.550781 332.316406 C 191.300781 332.039062 203.917969 330.117188 216.121094 326.683594 C 228.460938 323.25 240.390625 318.441406 251.5 312.125 C 269.1875 302.097656 284.273438 288.226562 297.023438 272.292969 C 302.371094 265.703125 307.445312 258.421875 311.695312 251.144531 C 313.890625 247.433594 315.671875 243.726562 317.457031 240.019531 C 319.101562 236.171875 320.609375 232.464844 321.84375 228.757812 C 328.425781 208.152344 329.523438 188.652344 327.605469 170.519531 C 327.464844 169.421875 327.328125 169.285156 327.191406 170.109375 C 327.054688 170.796875 326.917969 172.308594 327.054688 173.132812 C 327.878906 182.195312 327.878906 191.808594 326.644531 201.5625 C 325.546875 211.175781 323.488281 220.925781 320.882812 229.992188 C 314.027344 247.160156 304.292969 263.09375 292.363281 276.964844 C 280.296875 290.835938 266.171875 302.648438 250.402344 312.125 C 244.09375 315.421875 237.511719 318.304688 230.929688 320.503906 C 224.347656 322.835938 217.628906 324.484375 210.910156 325.996094 C 197.199219 328.46875 183.347656 329.84375 168.949219 329.566406 Z M 168.949219 329.566406 " fill-opacity="1" fill-rule="nonzero"/></g></g></g></g></g></g></g><g clip-path="url(#87070ff214)"><path fill="#ffffff" d="M 195.007812 149.074219 L 209.175781 149.074219 C 209.484375 149.070312 209.789062 149.097656 210.09375 149.152344 C 210.398438 149.210938 210.691406 149.296875 210.980469 149.414062 C 211.265625 149.527344 211.539062 149.667969 211.796875 149.839844 C 212.054688 150.007812 212.292969 150.199219 212.515625 150.417969 C 212.734375 150.632812 212.933594 150.871094 213.105469 151.125 C 213.277344 151.382812 213.425781 151.652344 213.546875 151.933594 C 213.667969 152.21875 213.757812 152.511719 213.820312 152.816406 C 213.882812 153.117188 213.914062 153.425781 213.914062 153.734375 L 213.914062 176.582031 C 213.914062 176.890625 213.882812 177.191406 213.820312 177.492188 C 213.757812 177.792969 213.667969 178.085938 213.550781 178.367188 C 213.433594 178.652344 213.289062 178.917969 213.117188 179.171875 C 212.945312 179.425781 212.75 179.664062 212.53125 179.878906 C 212.316406 180.09375 212.078125 180.289062 211.824219 180.457031 C 211.570312 180.628906 211.300781 180.769531 211.015625 180.886719 C 210.730469 181.003906 210.441406 181.09375 210.140625 181.152344 C 209.839844 181.210938 209.535156 181.242188 209.226562 181.242188 L 186.238281 181.242188 C 185.222656 181.238281 184.25 181.042969 183.3125 180.648438 C 182.375 180.257812 181.550781 179.699219 180.839844 178.976562 C 179.625 177.796875 178.238281 176.882812 176.671875 176.234375 C 175.105469 175.589844 173.476562 175.257812 171.78125 175.238281 L 169.859375 175.238281 L 170.515625 148.914062 C 173.144531 148.667969 175.652344 147.972656 178.035156 146.832031 C 180.414062 145.691406 182.527344 144.175781 184.367188 142.28125 C 188.6875 137.59375 190.609375 130.832031 190.214844 122.144531 C 190.03125 120.925781 190.277344 119.804688 190.953125 118.773438 C 191.246094 118.429688 191.601562 118.167969 192.019531 117.988281 C 192.433594 117.804688 192.867188 117.726562 193.320312 117.746094 C 193.984375 117.644531 194.632812 117.695312 195.269531 117.894531 C 195.90625 118.09375 196.46875 118.421875 196.957031 118.878906 C 198.640625 120.617188 199.429688 124.300781 199.0625 128.988281 C 198.121094 134.761719 196.046875 140.09375 192.847656 144.992188 C 192.613281 145.398438 192.496094 145.839844 192.496094 146.308594 C 192.496094 146.78125 192.613281 147.21875 192.847656 147.625 C 193.054688 148.039062 193.351562 148.375 193.738281 148.632812 C 194.121094 148.890625 194.546875 149.039062 195.007812 149.074219 Z M 165.171875 241.894531 L 164.511719 241.421875 C 163.496094 240.609375 162.539062 239.730469 161.640625 238.789062 C 155.507812 232.679688 152.082031 230.496094 150.292969 229.757812 C 145.601562 228.453125 140.828125 227.917969 135.964844 228.152344 C 135.125 228.152344 134.308594 228.152344 133.492188 228.152344 L 132.753906 228.152344 C 132.171875 228.152344 131.621094 228.152344 131.066406 227.917969 L 130.226562 227.757812 L 128.59375 227.441406 L 127.855469 227.230469 C 127.144531 227.019531 126.40625 226.785156 125.722656 226.519531 L 125.589844 226.519531 C 124.828125 226.230469 124.089844 225.890625 123.378906 225.546875 L 122.746094 225.203125 C 122.246094 224.941406 121.746094 224.679688 121.246094 224.363281 L 120.535156 223.941406 L 119.953125 223.574219 L 99.28125 297.386719 L 127.589844 287.410156 C 127.890625 287.371094 128.1875 287.371094 128.488281 287.410156 C 129.3125 287.410156 129.988281 287.726562 130.515625 288.359375 L 149.554688 311.578125 L 168.4375 244.078125 C 167.289062 243.441406 166.199219 242.710938 165.171875 241.894531 Z M 242.882812 223.730469 L 242.121094 224.203125 C 241.667969 224.492188 241.203125 224.757812 240.722656 224.996094 L 240.011719 225.363281 C 239.300781 225.730469 238.589844 226.046875 237.878906 226.335938 L 237.589844 226.335938 L 235.589844 226.996094 L 234.796875 227.207031 L 233.21875 227.574219 L 232.375 227.730469 C 231.832031 227.835938 231.277344 227.917969 230.714844 227.96875 C 230.453125 227.96875 230.191406 227.96875 229.925781 227.96875 C 229.136719 227.96875 228.320312 227.96875 227.476562 227.96875 C 222.589844 227.734375 217.789062 228.269531 213.074219 229.574219 C 211.308594 230.3125 207.804688 232.496094 201.75 238.605469 C 200.855469 239.492188 199.910156 240.320312 198.90625 241.078125 L 198.21875 241.605469 C 197.214844 242.328125 196.171875 242.988281 195.085938 243.578125 L 213.914062 311.445312 L 232.953125 288.226562 C 233.308594 287.796875 233.75 287.503906 234.289062 287.355469 C 234.824219 287.207031 235.355469 287.222656 235.878906 287.410156 L 264.1875 297.386719 L 243.460938 223.386719 Z M 149.582031 180.375 L 164.433594 180.375 L 164.433594 141.675781 L 149.582031 141.675781 Z M 262.265625 137.226562 C 262 137.359375 261.6875 137.4375 261.421875 137.542969 L 260.183594 138.015625 L 258.234375 138.648438 L 257.023438 138.992188 L 254.839844 139.492188 L 253.785156 139.703125 C 252.707031 139.886719 251.601562 140.042969 250.492188 140.148438 C 249.386719 140.253906 248.359375 140.148438 247.308594 140.148438 L 246.203125 140.148438 C 245.386719 140.148438 244.570312 140.148438 243.753906 140.148438 L 243.355469 140.148438 C 244.390625 144.769531 244.910156 149.445312 244.910156 154.179688 C 244.910156 156.25 244.808594 158.3125 244.605469 160.371094 C 244.402344 162.433594 244.101562 164.476562 243.695312 166.507812 C 243.292969 168.535156 242.789062 170.539062 242.1875 172.519531 C 241.589844 174.5 240.890625 176.445312 240.101562 178.359375 C 239.308594 180.269531 238.421875 182.136719 237.449219 183.964844 C 236.472656 185.789062 235.410156 187.5625 234.257812 189.28125 C 233.109375 191 231.878906 192.660156 230.566406 194.261719 C 229.25 195.859375 227.863281 197.390625 226.398438 198.855469 C 224.9375 200.316406 223.402344 201.707031 221.804688 203.019531 C 220.203125 204.332031 218.542969 205.5625 216.820312 206.710938 C 215.101562 207.863281 213.328125 208.925781 211.5 209.898438 C 209.675781 210.875 207.808594 211.757812 205.894531 212.550781 C 203.984375 213.34375 202.035156 214.039062 200.054688 214.640625 C 198.074219 215.238281 196.070312 215.742188 194.039062 216.144531 C 192.007812 216.550781 189.964844 216.851562 187.902344 217.054688 C 185.84375 217.257812 183.777344 217.359375 181.707031 217.359375 C 179.636719 217.359375 177.574219 217.257812 175.515625 217.054688 C 173.453125 216.851562 171.410156 216.550781 169.378906 216.144531 C 167.347656 215.742188 165.34375 215.238281 163.363281 214.640625 C 161.382812 214.039062 159.433594 213.34375 157.523438 212.550781 C 155.609375 211.757812 153.742188 210.875 151.914062 209.898438 C 150.089844 208.925781 148.316406 207.863281 146.59375 206.710938 C 144.875 205.5625 143.214844 204.332031 141.613281 203.019531 C 140.011719 201.707031 138.480469 200.316406 137.019531 198.855469 C 135.554688 197.390625 134.164062 195.859375 132.851562 194.261719 C 131.539062 192.660156 130.308594 191 129.15625 189.28125 C 128.007812 187.5625 126.945312 185.789062 125.96875 183.964844 C 124.992188 182.136719 124.109375 180.269531 123.316406 178.359375 C 122.523438 176.445312 121.828125 174.5 121.226562 172.519531 C 120.625 170.539062 120.125 168.535156 119.722656 166.507812 C 119.316406 164.476562 119.011719 162.433594 118.8125 160.371094 C 118.609375 158.3125 118.507812 156.25 118.507812 154.179688 C 118.507812 152.109375 118.609375 150.046875 118.8125 147.988281 C 119.011719 145.929688 119.316406 143.882812 119.722656 141.855469 C 120.125 139.824219 120.625 137.820312 121.226562 135.839844 C 121.828125 133.859375 122.523438 131.914062 123.316406 130.003906 C 124.109375 128.089844 124.992188 126.222656 125.96875 124.398438 C 126.945312 122.574219 128.007812 120.800781 129.15625 119.078125 C 130.308594 117.359375 131.539062 115.699219 132.851562 114.097656 C 134.164062 112.5 135.554688 110.96875 137.019531 109.503906 C 138.480469 108.042969 140.011719 106.65625 141.613281 105.339844 C 143.214844 104.027344 144.875 102.796875 146.59375 101.648438 C 148.316406 100.5 150.089844 99.4375 151.914062 98.460938 C 153.742188 97.484375 155.609375 96.601562 157.523438 95.808594 C 159.433594 95.019531 161.382812 94.320312 163.363281 93.722656 C 165.34375 93.121094 167.347656 92.617188 169.378906 92.214844 C 171.410156 91.8125 173.453125 91.507812 175.511719 91.304688 C 177.574219 91.101562 179.636719 91 181.707031 91 C 186.160156 90.980469 190.566406 91.4375 194.921875 92.363281 C 199.277344 93.292969 203.484375 94.671875 207.542969 96.503906 C 207.871094 93.402344 208.554688 90.382812 209.597656 87.445312 C 210.050781 86.136719 210.578125 84.855469 211.175781 83.601562 C 211.175781 83.601562 211.175781 83.445312 211.308594 83.367188 L 211.148438 83.367188 C 206.15625 80.753906 201.765625 77.355469 197.984375 73.179688 C 197.449219 72.640625 196.890625 72.132812 196.304688 71.652344 C 195.722656 71.167969 195.113281 70.714844 194.484375 70.292969 C 193.855469 69.871094 193.207031 69.484375 192.542969 69.125 C 191.875 68.765625 191.191406 68.441406 190.492188 68.152344 C 189.792969 67.859375 189.078125 67.605469 188.355469 67.382812 C 187.628906 67.164062 186.898438 66.980469 186.15625 66.832031 C 185.410156 66.683594 184.664062 66.570312 183.910156 66.496094 C 183.15625 66.421875 182.398438 66.386719 181.644531 66.386719 C 180.886719 66.386719 180.128906 66.421875 179.375 66.496094 C 178.621094 66.570312 177.875 66.683594 177.132812 66.832031 C 176.386719 66.980469 175.65625 67.164062 174.929688 67.382812 C 174.207031 67.605469 173.492188 67.859375 172.792969 68.152344 C 172.09375 68.441406 171.410156 68.765625 170.742188 69.125 C 170.078125 69.484375 169.429688 69.871094 168.800781 70.292969 C 168.171875 70.714844 167.5625 71.167969 166.980469 71.652344 C 166.394531 72.132812 165.835938 72.640625 165.300781 73.179688 C 161.527344 77.359375 157.136719 80.746094 152.136719 83.339844 C 146.855469 84.914062 141.46875 85.566406 135.964844 85.289062 C 135.207031 85.289062 134.453125 85.328125 133.699219 85.402344 C 132.945312 85.476562 132.195312 85.589844 131.453125 85.738281 C 130.707031 85.886719 129.972656 86.070312 129.25 86.289062 C 128.523438 86.511719 127.8125 86.765625 127.113281 87.054688 C 126.410156 87.347656 125.726562 87.671875 125.058594 88.027344 C 124.390625 88.386719 123.742188 88.773438 123.113281 89.195312 C 122.480469 89.617188 121.875 90.066406 121.289062 90.546875 C 120.703125 91.027344 120.140625 91.539062 119.605469 92.074219 C 119.070312 92.609375 118.5625 93.167969 118.082031 93.753906 C 117.601562 94.339844 117.148438 94.949219 116.726562 95.578125 C 116.304688 96.207031 115.917969 96.855469 115.558594 97.523438 C 115.203125 98.191406 114.878906 98.875 114.585938 99.578125 C 114.296875 100.277344 114.042969 100.988281 113.820312 101.714844 C 113.601562 102.4375 113.414062 103.171875 113.265625 103.914062 C 113.117188 104.65625 113.007812 105.40625 112.933594 106.160156 C 112.855469 106.914062 112.820312 107.671875 112.816406 108.425781 C 113.144531 114.003906 112.460938 119.453125 110.765625 124.773438 C 108.207031 129.78125 104.847656 134.167969 100.679688 137.9375 C 100.140625 138.472656 99.628906 139.027344 99.144531 139.613281 C 98.660156 140.195312 98.207031 140.800781 97.785156 141.429688 C 97.359375 142.058594 96.96875 142.707031 96.609375 143.375 C 96.25 144.039062 95.925781 144.722656 95.632812 145.421875 C 95.339844 146.121094 95.085938 146.832031 94.863281 147.558594 C 94.640625 148.28125 94.457031 149.015625 94.308594 149.757812 C 94.160156 150.503906 94.046875 151.25 93.972656 152.003906 C 93.898438 152.757812 93.859375 153.515625 93.859375 154.273438 C 93.859375 155.03125 93.898438 155.785156 93.972656 156.539062 C 94.046875 157.292969 94.160156 158.042969 94.308594 158.785156 C 94.457031 159.527344 94.640625 160.261719 94.863281 160.988281 C 95.085938 161.710938 95.339844 162.421875 95.632812 163.121094 C 95.925781 163.820312 96.25 164.503906 96.609375 165.171875 C 96.96875 165.839844 97.359375 166.484375 97.785156 167.113281 C 98.207031 167.742188 98.660156 168.347656 99.144531 168.933594 C 99.628906 169.515625 100.140625 170.074219 100.679688 170.605469 C 104.871094 174.367188 108.25 178.753906 110.816406 183.769531 C 112.519531 189.089844 113.203125 194.539062 112.871094 200.117188 C 112.882812 201.695312 113.050781 203.257812 113.382812 204.800781 C 113.714844 206.347656 114.199219 207.839844 114.839844 209.285156 C 115.476562 210.730469 116.257812 212.09375 117.175781 213.378906 C 118.09375 214.664062 119.136719 215.839844 120.296875 216.914062 C 121.835938 218.347656 123.542969 219.546875 125.417969 220.503906 C 127.292969 221.460938 129.265625 222.140625 131.332031 222.546875 C 132.148438 222.703125 132.964844 222.835938 133.78125 222.914062 C 134.5 222.953125 135.21875 222.953125 135.941406 222.914062 C 141.507812 222.636719 146.957031 223.304688 152.292969 224.914062 C 157.296875 227.515625 161.6875 230.910156 165.460938 235.101562 C 167.550781 237.21875 169.964844 238.859375 172.703125 240.027344 C 175.621094 241.28125 178.664062 241.902344 181.839844 241.894531 C 184.515625 241.902344 187.117188 241.453125 189.636719 240.546875 C 192.15625 239.644531 194.445312 238.335938 196.507812 236.628906 C 197.0625 236.15625 197.589844 235.65625 198.140625 235.128906 C 201.910156 230.941406 206.300781 227.554688 211.308594 224.96875 C 216.660156 223.335938 222.128906 222.660156 227.714844 222.941406 C 230.574219 222.9375 233.335938 222.414062 235.996094 221.375 C 238.660156 220.335938 241.042969 218.847656 243.144531 216.914062 C 244.324219 215.828125 245.378906 214.632812 246.3125 213.324219 C 247.242188 212.019531 248.03125 210.632812 248.675781 209.167969 C 249.316406 207.699219 249.804688 206.179688 250.132812 204.613281 C 250.460938 203.042969 250.625 201.457031 250.625 199.855469 C 250.3125 194.269531 251.003906 188.808594 252.707031 183.480469 C 253.945312 180.292969 257.183594 176.160156 262.816406 170.476562 C 263.351562 169.941406 263.859375 169.378906 264.339844 168.796875 C 264.820312 168.210938 265.269531 167.601562 265.691406 166.972656 C 266.109375 166.34375 266.5 165.695312 266.855469 165.03125 C 267.210938 164.363281 267.535156 163.679688 267.824219 162.980469 C 268.113281 162.28125 268.367188 161.570312 268.585938 160.84375 C 268.804688 160.121094 268.988281 159.390625 269.136719 158.648438 C 269.285156 157.90625 269.394531 157.15625 269.46875 156.40625 C 269.542969 155.652344 269.582031 154.898438 269.582031 154.140625 C 269.582031 153.382812 269.542969 152.628906 269.46875 151.875 C 269.394531 151.125 269.285156 150.375 269.136719 149.632812 C 268.988281 148.894531 268.804688 148.160156 268.585938 147.4375 C 268.367188 146.710938 268.113281 146 267.824219 145.300781 C 267.535156 144.601562 267.210938 143.917969 266.855469 143.253906 C 266.5 142.585938 266.109375 141.9375 265.691406 141.308594 C 265.269531 140.679688 264.820312 140.070312 264.339844 139.488281 C 263.859375 138.902344 263.351562 138.339844 262.816406 137.804688 Z M 281.359375 100.660156 C 281.355469 102.277344 281.238281 103.886719 281.007812 105.488281 C 280.777344 107.085938 280.4375 108.664062 279.984375 110.214844 C 279.535156 111.769531 278.976562 113.28125 278.308594 114.753906 C 277.644531 116.230469 276.878906 117.648438 276.015625 119.015625 C 275.152344 120.382812 274.195312 121.679688 273.148438 122.910156 C 272.101562 124.144531 270.972656 125.296875 269.761719 126.367188 C 268.550781 127.441406 267.273438 128.421875 265.925781 129.316406 C 264.578125 130.210938 263.171875 131.003906 261.710938 131.699219 C 258.003906 133.488281 254.097656 134.550781 249.992188 134.882812 C 246.722656 135.195312 243.472656 135.027344 240.25 134.382812 C 237.765625 133.890625 235.359375 133.144531 233.035156 132.144531 C 231.675781 131.542969 230.363281 130.851562 229.09375 130.078125 C 227.824219 129.300781 226.609375 128.449219 225.449219 127.519531 C 224.289062 126.585938 223.195312 125.585938 222.167969 124.511719 C 221.136719 123.441406 220.179688 122.308594 219.296875 121.113281 C 218.414062 119.917969 217.609375 118.667969 216.886719 117.371094 C 216.164062 116.070312 215.527344 114.730469 214.980469 113.347656 C 214.429688 111.96875 213.972656 110.554688 213.601562 109.117188 C 213.234375 107.675781 212.960938 106.21875 212.78125 104.742188 C 212.601562 103.34375 212.519531 101.941406 212.546875 100.53125 C 212.574219 96.621094 213.230469 92.820312 214.519531 89.132812 C 215.277344 86.992188 216.25 84.953125 217.445312 83.023438 C 218.402344 81.417969 219.484375 79.902344 220.6875 78.472656 C 221.890625 77.042969 223.203125 75.722656 224.625 74.507812 C 226.046875 73.292969 227.554688 72.199219 229.15625 71.230469 C 230.753906 70.261719 232.421875 69.429688 234.15625 68.734375 C 235.890625 68.035156 237.671875 67.484375 239.496094 67.078125 C 241.320312 66.671875 243.167969 66.417969 245.035156 66.3125 C 246.898438 66.207031 248.761719 66.253906 250.621094 66.453125 C 252.480469 66.652344 254.3125 67 256.113281 67.496094 C 257.914062 67.996094 259.664062 68.636719 261.363281 69.417969 C 263.0625 70.203125 264.683594 71.117188 266.230469 72.164062 C 267.78125 73.210938 269.234375 74.378906 270.589844 75.664062 C 271.949219 76.949219 273.191406 78.335938 274.324219 79.824219 C 275.457031 81.3125 276.460938 82.878906 277.335938 84.53125 C 278.210938 86.183594 278.945312 87.894531 279.539062 89.667969 C 280.136719 91.4375 280.585938 93.246094 280.882812 95.089844 C 281.183594 96.9375 281.332031 98.792969 281.332031 100.660156 Z M 262.609375 89.34375 C 262.359375 89.09375 262.074219 88.902344 261.75 88.765625 C 261.425781 88.628906 261.089844 88.5625 260.738281 88.5625 C 260.386719 88.5625 260.050781 88.628906 259.726562 88.765625 C 259.402344 88.902344 259.113281 89.09375 258.867188 89.34375 L 239.273438 108.980469 L 232.480469 102.1875 C 232.230469 101.972656 231.945312 101.8125 231.632812 101.703125 C 231.320312 101.59375 230.996094 101.542969 230.667969 101.558594 C 230.335938 101.570312 230.015625 101.644531 229.714844 101.777344 C 229.410156 101.910156 229.140625 102.09375 228.90625 102.328125 C 228.671875 102.5625 228.488281 102.832031 228.355469 103.132812 C 228.222656 103.4375 228.148438 103.753906 228.136719 104.085938 C 228.125 104.417969 228.171875 104.738281 228.28125 105.054688 C 228.390625 105.367188 228.550781 105.648438 228.769531 105.902344 L 237.40625 114.5625 C 237.921875 115.074219 238.546875 115.328125 239.273438 115.324219 C 239.992188 115.320312 240.609375 115.066406 241.117188 114.5625 L 262.609375 93.183594 C 262.875 92.9375 263.078125 92.644531 263.222656 92.3125 C 263.367188 91.976562 263.441406 91.628906 263.441406 91.265625 C 263.441406 90.898438 263.367188 90.550781 263.222656 90.214844 C 263.078125 89.882812 262.875 89.589844 262.609375 89.34375 Z M 207.621094 105.425781 C 207.824219 107.128906 208.136719 108.8125 208.554688 110.472656 C 208.976562 112.136719 209.503906 113.765625 210.136719 115.359375 C 210.765625 116.953125 211.5 118.5 212.332031 120 C 213.164062 121.5 214.09375 122.9375 215.113281 124.316406 C 216.132812 125.695312 217.234375 127.003906 218.425781 128.238281 C 219.613281 129.476562 220.878906 130.628906 222.21875 131.699219 C 223.558594 132.773438 224.960938 133.753906 226.425781 134.640625 C 227.894531 135.53125 229.410156 136.324219 230.980469 137.015625 C 232.21875 137.570312 233.613281 138.015625 234.796875 138.4375 L 236.011719 138.78125 C 236.589844 138.9375 237.140625 139.121094 237.722656 139.253906 C 239 144.15625 239.640625 149.140625 239.644531 154.207031 C 239.644531 156.101562 239.550781 157.996094 239.363281 159.882812 C 239.179688 161.769531 238.902344 163.644531 238.53125 165.503906 C 238.160156 167.367188 237.699219 169.203125 237.148438 171.019531 C 236.597656 172.832031 235.960938 174.617188 235.234375 176.371094 C 234.507812 178.121094 233.699219 179.835938 232.804688 181.507812 C 231.910156 183.179688 230.933594 184.804688 229.878906 186.382812 C 228.824219 187.960938 227.695312 189.480469 226.492188 190.949219 C 225.289062 192.414062 224.015625 193.816406 222.675781 195.160156 C 221.332031 196.5 219.929688 197.773438 218.460938 198.976562 C 216.996094 200.179688 215.472656 201.308594 213.894531 202.359375 C 212.316406 203.414062 210.691406 204.390625 209.019531 205.28125 C 207.347656 206.175781 205.632812 206.988281 203.878906 207.710938 C 202.125 208.4375 200.34375 209.078125 198.527344 209.628906 C 196.710938 210.179688 194.871094 210.636719 193.011719 211.007812 C 191.148438 211.378906 189.277344 211.65625 187.386719 211.84375 C 185.5 212.027344 183.605469 212.121094 181.707031 212.121094 C 179.8125 212.121094 177.917969 212.027344 176.03125 211.84375 C 174.140625 211.65625 172.265625 211.378906 170.40625 211.007812 C 168.546875 210.636719 166.707031 210.179688 164.890625 209.628906 C 163.074219 209.078125 161.289062 208.4375 159.539062 207.710938 C 157.785156 206.988281 156.070312 206.175781 154.398438 205.28125 C 152.726562 204.390625 151.097656 203.414062 149.519531 202.359375 C 147.945312 201.308594 146.421875 200.179688 144.953125 198.976562 C 143.488281 197.773438 142.082031 196.5 140.742188 195.160156 C 139.398438 193.816406 138.128906 192.414062 136.925781 190.949219 C 135.71875 189.480469 134.589844 187.960938 133.535156 186.382812 C 132.484375 184.804688 131.507812 183.179688 130.613281 181.507812 C 129.71875 179.835938 128.910156 178.121094 128.183594 176.371094 C 127.457031 174.617188 126.820312 172.832031 126.269531 171.019531 C 125.71875 169.203125 125.257812 167.367188 124.886719 165.503906 C 124.515625 163.644531 124.238281 161.769531 124.050781 159.882812 C 123.867188 157.996094 123.773438 156.101562 123.773438 154.207031 C 123.773438 152.308594 123.867188 150.417969 124.050781 148.53125 C 124.238281 146.640625 124.515625 144.769531 124.886719 142.90625 C 125.257812 141.046875 125.71875 139.210938 126.269531 137.394531 C 126.820312 135.578125 127.457031 133.796875 128.183594 132.042969 C 128.910156 130.292969 129.71875 128.578125 130.613281 126.90625 C 131.507812 125.234375 132.484375 123.609375 133.535156 122.03125 C 134.589844 120.453125 135.71875 118.933594 136.925781 117.464844 C 138.128906 116 139.398438 114.597656 140.742188 113.253906 C 142.082031 111.914062 143.488281 110.640625 144.953125 109.4375 C 146.421875 108.234375 147.945312 107.105469 149.519531 106.050781 C 151.097656 105 152.726562 104.023438 154.398438 103.128906 C 156.070312 102.234375 157.785156 101.425781 159.539062 100.699219 C 161.289062 99.972656 163.074219 99.335938 164.890625 98.785156 C 166.707031 98.234375 168.546875 97.773438 170.40625 97.40625 C 172.265625 97.035156 174.140625 96.757812 176.03125 96.570312 C 177.917969 96.386719 179.8125 96.292969 181.707031 96.292969 C 186.152344 96.277344 190.539062 96.773438 194.867188 97.777344 C 199.195312 98.78125 203.351562 100.269531 207.332031 102.242188 C 207.332031 102.453125 207.332031 102.6875 207.332031 102.898438 C 207.316406 103.101562 207.316406 103.304688 207.332031 103.503906 C 207.464844 104.136719 207.515625 104.792969 207.621094 105.425781 Z M 209.175781 143.808594 L 199.589844 143.808594 C 202.050781 139.265625 203.585938 134.429688 204.199219 129.304688 C 204.699219 122.878906 203.40625 117.957031 200.5625 115.0625 C 199.515625 114.046875 198.296875 113.308594 196.914062 112.847656 C 195.527344 112.386719 194.113281 112.246094 192.664062 112.429688 C 191.480469 112.46875 190.359375 112.75 189.296875 113.273438 C 188.238281 113.796875 187.332031 114.515625 186.582031 115.429688 C 185.851562 116.472656 185.328125 117.609375 185.007812 118.84375 C 184.691406 120.074219 184.601562 121.324219 184.738281 122.589844 C 185.210938 129.699219 183.710938 135.121094 180.367188 138.726562 C 178.925781 140.167969 177.28125 141.320312 175.4375 142.179688 C 173.589844 143.039062 171.652344 143.554688 169.621094 143.730469 L 169.621094 139.042969 C 169.621094 138.695312 169.554688 138.359375 169.421875 138.035156 C 169.285156 137.714844 169.097656 137.429688 168.851562 137.183594 C 168.601562 136.933594 168.316406 136.746094 167.996094 136.613281 C 167.671875 136.476562 167.335938 136.410156 166.988281 136.410156 L 146.949219 136.410156 C 146.597656 136.410156 146.261719 136.476562 145.941406 136.613281 C 145.617188 136.746094 145.332031 136.933594 145.085938 137.183594 C 144.839844 137.429688 144.648438 137.714844 144.515625 138.035156 C 144.378906 138.359375 144.3125 138.695312 144.3125 139.042969 L 144.3125 183.007812 C 144.3125 183.355469 144.378906 183.691406 144.515625 184.011719 C 144.648438 184.335938 144.839844 184.621094 145.085938 184.867188 C 145.332031 185.113281 145.617188 185.304688 145.941406 185.4375 C 146.261719 185.570312 146.597656 185.636719 146.949219 185.636719 L 167.066406 185.636719 C 167.414062 185.636719 167.75 185.570312 168.074219 185.4375 C 168.398438 185.304688 168.683594 185.113281 168.929688 184.867188 C 169.175781 184.621094 169.367188 184.335938 169.5 184.011719 C 169.632812 183.691406 169.699219 183.355469 169.699219 183.007812 L 169.699219 180.503906 L 171.78125 180.503906 C 172.769531 180.507812 173.71875 180.699219 174.628906 181.078125 C 175.542969 181.457031 176.347656 181.992188 177.046875 182.691406 C 178.269531 183.894531 179.671875 184.824219 181.257812 185.480469 C 182.84375 186.136719 184.496094 186.46875 186.210938 186.480469 L 209.175781 186.480469 C 209.828125 186.484375 210.476562 186.425781 211.117188 186.300781 C 211.761719 186.175781 212.382812 185.992188 212.988281 185.742188 C 213.59375 185.496094 214.167969 185.191406 214.714844 184.832031 C 215.261719 184.472656 215.765625 184.0625 216.230469 183.605469 C 216.695312 183.144531 217.109375 182.644531 217.476562 182.101562 C 217.839844 181.5625 218.152344 180.988281 218.40625 180.386719 C 218.65625 179.785156 218.851562 179.164062 218.980469 178.523438 C 219.113281 177.882812 219.179688 177.234375 219.183594 176.582031 L 219.183594 153.734375 C 219.183594 153.078125 219.117188 152.429688 218.988281 151.785156 C 218.859375 151.144531 218.671875 150.519531 218.417969 149.917969 C 218.167969 149.3125 217.859375 148.738281 217.492188 148.195312 C 217.128906 147.652344 216.710938 147.148438 216.246094 146.6875 C 215.78125 146.226562 215.277344 145.8125 214.730469 145.453125 C 214.183594 145.09375 213.605469 144.789062 213 144.539062 C 212.390625 144.292969 211.765625 144.109375 211.125 143.984375 C 210.480469 143.863281 209.832031 143.804688 209.175781 143.808594 Z M 209.175781 143.808594 " fill-opacity="1" fill-rule="nonzero"/></g></svg>