<svg xmlns="http://www.w3.org/2000/svg" xmlns:xlink="http://www.w3.org/1999/xlink" width="500" zoomAndPan="magnify" viewBox="0 0 375 374.999991" height="500" preserveAspectRatio="xMidYMid meet" version="1.0"><defs><filter x="0%" y="0%" width="100%" height="100%" id="f97bd05229"><feColorMatrix values="0 0 0 0 1 0 0 0 0 1 0 0 0 0 1 0 0 0 1 0" color-interpolation-filters="sRGB"/></filter><mask id="629862d905"><g filter="url(#f97bd05229)"><rect x="-37.5" width="450" fill="#000000" y="-37.499999" height="449.999989" fill-opacity="0.749"/></g></mask><clipPath id="6dad31255b"><path d="M 0.921875 0.601562 L 337.152344 0.601562 L 337.152344 333.550781 L 0.921875 333.550781 Z M 0.921875 0.601562 " clip-rule="nonzero"/></clipPath><mask id="a5c441b7f2"><g filter="url(#f97bd05229)"><rect x="-101.5" width="540" fill="#000000" y="-103.499998" height="539.999987" fill-opacity="0.8"/></g></mask><clipPath id="ab16d43020"><path d="M 85 310 L 159 310 L 159 333.550781 L 85 333.550781 Z M 85 310 " clip-rule="nonzero"/></clipPath><clipPath id="d121342a38"><rect x="0" width="338" y="0" height="334"/></clipPath><clipPath id="3590d728d4"><rect x="0" width="339" y="0" height="335"/></clipPath><clipPath id="79b072fcfe"><path d="M 79.308594 51 L 314.808594 51 L 314.808594 303 L 79.308594 303 Z M 79.308594 51 " clip-rule="nonzero"/></clipPath></defs><path fill="#07c5bf" d="M 187.5 0 C 83.945312 0 0 83.945312 0 187.5 C 0 291.054688 83.945312 375 187.5 375 C 291.054688 375 375 291.054688 375 187.5 C 375 83.945312 291.054688 0 187.5 0 " fill-opacity="1" fill-rule="nonzero"/><g mask="url(#629862d905)"><g transform="matrix(1, 0, 0, 1, 19, 21)"><g clip-path="url(#3590d728d4)"><g clip-path="url(#6dad31255b)"><g mask="url(#a5c441b7f2)"><g><g clip-path="url(#d121342a38)"><path fill="#737373" d="M 311.011719 131.378906 C 304.839844 112.972656 295.242188 95.804688 282.765625 81.109375 C 270.285156 66.277344 254.925781 53.914062 237.648438 44.988281 C 220.371094 35.921875 201.175781 30.429688 181.429688 28.917969 C 161.683594 27.40625 141.523438 29.742188 122.601562 36.472656 C 122.601562 36.609375 122.601562 36.746094 122.328125 37.019531 C 121.777344 37.570312 120.683594 38.257812 119.3125 38.808594 C 117.941406 39.492188 116.429688 40.042969 114.921875 40.59375 C 106.558594 43.613281 98.46875 47.597656 90.652344 52.128906 C 76.664062 61.332031 64.597656 73.144531 54.726562 86.464844 C 56.644531 83.71875 58.839844 81.246094 60.894531 78.636719 C 63.089844 76.164062 65.285156 73.691406 67.613281 71.359375 C 72.140625 66.550781 77.214844 62.292969 82.425781 58.445312 C 83.933594 57.210938 85.441406 56.25 86.539062 55.699219 C 87.636719 55.152344 88.320312 55.011719 88.457031 55.425781 C 88.457031 55.835938 87.910156 56.523438 86.8125 57.625 C 85.851562 58.722656 84.34375 59.957031 82.835938 61.195312 C 69.125 72.042969 56.917969 86.464844 48.007812 102.125 C 38.957031 117.78125 33.195312 134.675781 29.496094 150.058594 C 26.890625 170.109375 28.808594 190.574219 34.703125 209.390625 C 40.601562 228.207031 50.613281 245.511719 63.363281 259.660156 C 76.117188 273.804688 91.75 285.066406 108.476562 292.484375 C 125.207031 299.902344 143.171875 303.609375 160.585938 303.746094 C 161.957031 303.746094 163.601562 303.882812 164.289062 304.160156 C 165.246094 304.433594 164.972656 304.707031 163.738281 304.707031 C 145.5 305.53125 126.167969 302.375 107.65625 294.542969 C 98.46875 290.5625 89.417969 285.617188 81.054688 279.4375 C 72.6875 273.257812 64.734375 265.976562 57.742188 257.734375 C 50.75 249.496094 44.578125 240.429688 39.640625 230.402344 C 34.703125 220.515625 30.726562 209.941406 28.121094 198.816406 C 25.65625 187.691406 24.421875 176.289062 24.558594 164.617188 L 24.558594 162.417969 L 24.695312 160.21875 L 24.96875 155.824219 C 25.242188 152.941406 25.519531 150.058594 25.929688 147.171875 C 26.890625 141.402344 27.847656 135.636719 29.496094 130.003906 L 30.589844 125.882812 L 31.960938 121.761719 C 32.785156 119.015625 33.882812 116.40625 34.980469 113.796875 C 27.984375 128.632812 23.460938 145.113281 21.953125 162.554688 C 22.363281 164.339844 22.5 167.226562 22.5 170.660156 C 22.773438 178.898438 23.734375 187.003906 25.242188 194.96875 C 25.242188 194.558594 25.378906 194.417969 25.519531 194.28125 C 26.066406 194.28125 27.027344 197.167969 27.710938 200.601562 C 31.960938 220.515625 40.464844 239.332031 52.394531 255.8125 C 52.667969 256.226562 52.941406 256.636719 53.21875 256.910156 C 68.574219 276.828125 89.007812 292.757812 111.90625 302.375 C 134.804688 312.261719 160.035156 315.832031 184.582031 313.085938 C 186.089844 312.949219 187.597656 312.675781 189.109375 312.535156 C 190.617188 312.261719 192.125 312.125 193.632812 311.851562 L 198.15625 310.886719 L 200.488281 310.476562 L 202.683594 309.925781 L 207.207031 308.828125 L 211.597656 307.453125 C 214.613281 306.632812 217.355469 305.394531 220.371094 304.433594 C 226.132812 302.097656 231.753906 299.761719 237.101562 296.742188 C 239.84375 295.367188 242.449219 293.71875 245.054688 292.210938 C 246.425781 291.386719 247.660156 290.5625 248.894531 289.738281 C 250.128906 288.914062 251.5 288.089844 252.734375 287.128906 C 272.753906 272.84375 288.796875 253.339844 299.21875 231.226562 C 299.628906 229.855469 300.453125 228.070312 301.136719 227.246094 C 301.824219 226.285156 302.097656 226.558594 301.6875 227.933594 C 301.960938 227.933594 302.371094 227.792969 302.234375 228.207031 C 295.925781 245.375 286.464844 261.167969 273.988281 275.042969 C 261.371094 288.777344 245.601562 300.449219 226.679688 308.417969 C 213.652344 313.910156 199.941406 317.480469 185.953125 319.128906 C 200.488281 318.304688 214.339844 315.695312 226.679688 312.261719 C 243.957031 305.257812 260 294.957031 273.578125 282.320312 C 287.152344 269.683594 298.53125 254.988281 307.308594 239.195312 L 306.347656 240.292969 C 307.035156 238.917969 307.859375 237.546875 308.542969 236.585938 C 309.230469 235.625 309.640625 234.9375 309.914062 235.074219 C 310.1875 235.074219 310.1875 235.625 309.914062 236.722656 C 309.640625 237.683594 309.089844 239.058594 308.269531 240.566406 C 304.703125 248.257812 300.453125 255.8125 295.515625 262.953125 C 290.578125 270.097656 284.957031 276.691406 278.925781 283.007812 C 272.753906 289.1875 266.171875 294.957031 259.042969 300.039062 C 251.910156 305.121094 244.230469 309.652344 236.277344 313.5 C 204.328125 329.019531 166.617188 332.726562 131.515625 324.074219 C 113.964844 319.679688 97.097656 312.261719 82.011719 302.097656 C 66.929688 291.933594 53.492188 279.160156 42.519531 264.464844 C 31.550781 249.769531 23.1875 233.011719 17.839844 215.433594 C 12.355469 197.851562 10.296875 179.175781 10.980469 160.632812 C 12.214844 131.242188 22.089844 102.398438 38.679688 78.363281 C 55.136719 54.191406 78.449219 34.960938 105.1875 23.011719 C 109.164062 21.089844 113.003906 20.128906 115.746094 19.441406 C 118.488281 18.890625 120.40625 18.890625 120.546875 19.578125 C 120.683594 20.816406 114.375 23.972656 106.695312 27.542969 C 81.191406 39.082031 59.25 57.761719 43.617188 80.699219 C 27.847656 103.632812 18.386719 130.691406 16.742188 158.574219 C 16.054688 170.796875 16.46875 183.15625 18.660156 195.105469 C 20.71875 207.054688 24.285156 218.867188 28.945312 229.992188 C 21.816406 212.410156 18.386719 193.59375 18.386719 174.917969 C 17.976562 167.773438 18.25 160.632812 18.9375 153.492188 C 19.621094 146.347656 20.992188 139.207031 22.636719 132.066406 C 24.558594 125.058594 26.75 118.054688 29.632812 111.324219 C 32.511719 104.59375 35.800781 98.003906 39.640625 91.683594 C 48.828125 76.300781 60.484375 63.117188 73.785156 52.402344 C 87.085938 41.691406 102.035156 33.175781 118.078125 27.40625 C 133.984375 21.636719 150.851562 18.34375 168.128906 17.792969 C 176.765625 17.519531 185.40625 17.929688 194.042969 19.027344 C 202.683594 20.128906 211.457031 22.050781 219.960938 24.523438 C 236.691406 29.46875 251.5 36.746094 264.800781 45.261719 C 271.382812 49.65625 277.554688 54.328125 283.449219 59.410156 C 289.207031 64.492188 294.695312 69.984375 299.628906 75.753906 C 304.703125 81.519531 309.230469 87.703125 313.34375 94.15625 C 317.457031 100.613281 321.160156 107.617188 324.449219 114.757812 C 327.605469 122.039062 330.347656 129.59375 332.402344 137.558594 C 334.460938 145.523438 335.96875 153.765625 336.789062 162.417969 C 337.066406 165.441406 336.929688 168.875 336.515625 169.972656 C 336.378906 170.519531 336.105469 170.519531 335.832031 169.972656 C 335.558594 169.421875 335.417969 168.324219 335.28125 166.8125 C 332.539062 133.710938 319.789062 103.769531 300.179688 79.734375 C 295.378906 73.691406 289.894531 68.0625 284.136719 62.84375 C 281.253906 60.09375 278.238281 57.761719 275.222656 55.152344 C 273.714844 53.914062 272.066406 52.816406 270.558594 51.578125 C 269.050781 50.34375 267.269531 49.382812 265.761719 48.144531 C 259.179688 43.75 252.320312 39.632812 245.054688 36.195312 C 237.785156 32.761719 230.109375 29.742188 222.292969 27.40625 C 205.425781 22.324219 188.148438 20.128906 171.007812 20.402344 C 153.867188 20.816406 137 23.835938 120.957031 29.605469 C 104.914062 35.375 89.828125 43.75 76.390625 54.601562 C 62.953125 65.453125 51.296875 78.636719 42.109375 93.746094 C 39.640625 97.867188 37.308594 101.984375 35.253906 106.242188 C 38.957031 99.375 43.070312 92.785156 47.730469 86.742188 C 52.394531 80.695312 57.46875 75.066406 62.816406 69.847656 C 83.109375 48.695312 109.300781 34 137.410156 27.683594 C 165.523438 21.363281 195.277344 23.285156 222.566406 33.449219 C 233.125 37.433594 243.273438 42.378906 252.597656 48.421875 C 262.058594 54.464844 270.695312 61.605469 278.511719 69.433594 C 280.570312 71.359375 282.351562 73.554688 284.273438 75.617188 C 286.191406 77.675781 287.835938 79.875 289.621094 82.070312 C 293.046875 86.464844 296.339844 91.136719 299.21875 95.941406 C 304.976562 105.558594 309.777344 115.859375 313.207031 126.84375 C 314.027344 129.59375 314.851562 132.339844 314.988281 134.535156 C 315.261719 136.734375 315.261719 138.382812 314.851562 139.070312 C 314.578125 139.617188 313.890625 139.070312 313.207031 137.695312 C 312.65625 136.320312 311.835938 134.125 311.011719 131.378906 Z M 110.261719 309.652344 C 100.523438 305.945312 91.199219 301.136719 82.425781 295.367188 C 99.289062 307.179688 118.625 315.558594 138.78125 319.816406 C 158.941406 324.074219 180.058594 324.210938 200.351562 320.089844 C 185.40625 322.425781 169.910156 322.835938 154.550781 321.191406 C 139.332031 319.402344 124.246094 315.558594 110.261719 309.652344 Z M 110.261719 309.652344 " fill-opacity="1" fill-rule="nonzero"/><g clip-path="url(#ab16d43020)"><path fill="#737373" d="M 156.609375 332.863281 C 144.269531 331.492188 132.0625 328.605469 120.269531 324.761719 C 108.476562 320.914062 97.234375 316.109375 86.8125 310.886719 C 85.851562 310.339844 85.167969 310.203125 85.578125 310.613281 C 85.988281 311.164062 87.085938 311.851562 88.183594 312.398438 C 98.195312 317.34375 109.164062 322.011719 120.546875 325.585938 C 131.925781 329.292969 143.992188 332.039062 155.785156 333.414062 C 157.15625 333.550781 158.390625 333.550781 158.527344 333.277344 C 158.804688 333.277344 157.84375 333 156.609375 332.863281 Z M 156.609375 332.863281 " fill-opacity="1" fill-rule="nonzero"/></g><path fill="#737373" d="M 72.277344 302.785156 C 56.234375 292.070312 41.699219 278.0625 30.179688 261.445312 C 18.796875 244.824219 10.160156 225.597656 5.632812 205.269531 C 1.109375 184.941406 0.421875 163.515625 3.851562 142.503906 C 7.28125 121.488281 14.960938 101.023438 26.203125 82.894531 C 44.441406 53.226562 71.316406 30.566406 101.894531 16.96875 C 103.816406 16.144531 105.734375 15.183594 107.65625 14.496094 L 113.550781 12.300781 C 117.527344 10.925781 121.503906 9.550781 125.480469 8.589844 C 129.457031 7.355469 133.570312 6.53125 137.6875 5.707031 C 141.800781 5.019531 145.914062 4.195312 150.164062 3.785156 C 154.277344 3.234375 158.527344 2.960938 162.78125 2.683594 C 164.835938 2.546875 167.03125 2.546875 169.085938 2.546875 C 171.144531 2.410156 173.339844 2.546875 175.394531 2.546875 C 177.453125 2.683594 179.644531 2.546875 181.703125 2.683594 C 183.757812 2.820312 185.953125 2.960938 188.011719 3.097656 C 190.066406 3.234375 192.261719 3.507812 194.316406 3.785156 C 195.414062 3.921875 196.375 4.058594 197.472656 4.195312 L 200.625 4.746094 C 211.734375 6.53125 222.703125 9.414062 232.988281 13.125 C 243.410156 16.832031 253.144531 21.363281 262.332031 26.445312 C 263.839844 27.269531 264.9375 27.683594 264.527344 27.132812 C 263.976562 26.445312 262.46875 25.347656 260.6875 24.386719 C 241.488281 13.671875 220.371094 6.394531 198.433594 3.097656 C 176.492188 -0.199219 154.003906 0.625 132.0625 5.570312 C 110.261719 10.511719 89.28125 19.851562 70.90625 33.039062 C 52.804688 45.8125 37.035156 62.566406 25.378906 81.933594 C 14.136719 100.335938 6.457031 120.941406 3.167969 142.226562 C -0.261719 163.515625 0.421875 185.21875 5.085938 205.957031 C 9.75 226.695312 18.523438 246.199219 30.453125 262.953125 C 42.246094 279.710938 57.195312 293.859375 73.648438 304.570312 C 74.472656 305.121094 75.15625 305.257812 74.882812 304.84375 C 74.335938 304.296875 73.101562 303.335938 72.277344 302.785156 Z M 72.277344 302.785156 " fill-opacity="1" fill-rule="nonzero"/><path fill="#737373" d="M 132.75 7.078125 C 121.09375 9.964844 109.710938 14.222656 98.878906 19.578125 C 88.183594 24.933594 77.898438 31.390625 68.574219 38.945312 C 59.113281 46.359375 50.335938 54.875 42.660156 64.078125 C 34.84375 73.417969 27.984375 83.582031 22.089844 94.433594 C 15.644531 106.105469 10.980469 118.605469 7.964844 131.515625 C 4.949219 144.425781 3.441406 157.886719 4.125 171.757812 C 4.398438 180.960938 5.773438 189.75 7.554688 198.402344 C 9.335938 206.917969 11.804688 215.160156 14.683594 223.125 C 16.054688 227.109375 17.839844 231.089844 19.484375 234.9375 C 20.445312 236.859375 21.265625 238.78125 22.226562 240.703125 C 23.1875 242.628906 24.144531 244.550781 25.242188 246.472656 C 29.355469 254.027344 33.882812 261.445312 39.230469 268.722656 C 39.914062 269.683594 40.738281 270.507812 41.148438 270.644531 C 41.285156 270.507812 40.875 269.820312 40.191406 268.859375 C 28.945312 253.066406 20.167969 236.171875 14.136719 218.316406 C 8.238281 200.460938 5.222656 181.507812 5.632812 161.867188 C 5.910156 152.804688 7.003906 143.738281 8.789062 134.8125 C 10.570312 126.160156 13.175781 117.507812 16.46875 109.128906 C 23.050781 92.371094 32.511719 76.988281 43.890625 63.390625 C 67.066406 36.335938 98.332031 16.832031 133.160156 7.765625 C 134.667969 7.355469 135.492188 7.078125 135.492188 6.804688 C 135.355469 6.667969 134.121094 6.804688 132.75 7.078125 Z M 132.75 7.078125 " fill-opacity="1" fill-rule="nonzero"/><path fill="#737373" d="M 32.648438 156.648438 C 31.414062 168.050781 31.550781 179.859375 33.332031 191.398438 C 35.117188 202.933594 38.40625 214.335938 43.207031 224.910156 C 48.007812 235.484375 54.175781 245.101562 61.171875 253.476562 C 68.300781 261.855469 76.253906 268.859375 84.34375 274.492188 C 85.167969 275.042969 85.441406 275.042969 85.03125 274.355469 C 84.617188 273.804688 83.519531 272.84375 82.835938 272.292969 C 74.882812 266.664062 67.203125 259.660156 60.621094 251.28125 C 54.039062 242.902344 48.144531 233.425781 43.753906 223.125 C 39.367188 212.824219 36.214844 201.835938 34.566406 190.710938 C 33.058594 179.585938 32.785156 168.1875 33.882812 157.199219 C 34.019531 155.136719 34.15625 153.214844 33.746094 152.941406 C 33.472656 152.941406 32.921875 154.453125 32.648438 156.648438 Z M 32.648438 156.648438 " fill-opacity="1" fill-rule="nonzero"/><path fill="#737373" d="M 168.949219 329.566406 C 156.609375 329.429688 144.269531 327.78125 132.199219 324.761719 C 120.269531 321.738281 108.617188 317.207031 97.644531 311.574219 C 86.675781 305.945312 76.527344 298.941406 67.066406 291.109375 C 57.742188 283.28125 49.238281 274.355469 41.699219 264.742188 C 28.121094 245.648438 18.660156 223.949219 13.863281 201.148438 C 13.3125 197.851562 12.355469 195.242188 11.941406 195.382812 C 11.394531 195.382812 11.53125 198.265625 12.078125 201.5625 C 14.273438 213.234375 17.839844 224.636719 22.5 235.484375 C 22.226562 235.210938 21.953125 235.210938 21.953125 235.347656 C 4.949219 197.167969 3.441406 152.253906 17.976562 112.699219 C 18.796875 110.5 19.210938 108.851562 18.9375 108.714844 C 18.660156 108.578125 17.703125 110.226562 16.878906 112.425781 C 9.199219 133.027344 5.910156 155.277344 7.003906 177.113281 C 8.101562 198.953125 13.726562 220.515625 23.324219 240.019531 C 23.871094 241.527344 24.695312 243.175781 25.65625 244.960938 C 29.90625 253.066406 34.84375 260.757812 40.464844 267.898438 C 45.949219 275.042969 52.121094 281.632812 58.703125 287.816406 C 71.867188 300.039062 87.085938 310.066406 103.816406 317.480469 C 115.746094 322.699219 128.085938 326.683594 140.566406 329.15625 C 153.179688 331.628906 165.796875 332.589844 178.550781 332.316406 C 191.300781 332.039062 203.917969 330.117188 216.121094 326.683594 C 228.460938 323.25 240.390625 318.441406 251.5 312.125 C 269.1875 302.097656 284.273438 288.226562 297.023438 272.292969 C 302.371094 265.703125 307.445312 258.421875 311.695312 251.144531 C 313.890625 247.433594 315.671875 243.726562 317.457031 240.019531 C 319.101562 236.171875 320.609375 232.464844 321.84375 228.757812 C 328.425781 208.152344 329.523438 188.652344 327.605469 170.519531 C 327.464844 169.421875 327.328125 169.285156 327.191406 170.109375 C 327.054688 170.796875 326.917969 172.308594 327.054688 173.132812 C 327.878906 182.195312 327.878906 191.808594 326.644531 201.5625 C 325.546875 211.175781 323.488281 220.925781 320.882812 229.992188 C 314.027344 247.160156 304.292969 263.09375 292.363281 276.964844 C 280.296875 290.835938 266.171875 302.648438 250.402344 312.125 C 244.09375 315.421875 237.511719 318.304688 230.929688 320.503906 C 224.347656 322.835938 217.628906 324.484375 210.910156 325.996094 C 197.199219 328.46875 183.347656 329.84375 168.949219 329.566406 Z M 168.949219 329.566406 " fill-opacity="1" fill-rule="nonzero"/></g></g></g></g></g></g></g><g clip-path="url(#79b072fcfe)"><path fill="#ffffff" d="M 302.71875 219.640625 C 300.355469 219.640625 298.394531 217.699219 298.394531 215.332031 C 298.394531 212.964844 300.355469 211 302.71875 211 C 305.078125 211 307.039062 212.964844 307.039062 215.332031 C 307.039062 217.699219 305.078125 219.640625 302.71875 219.640625 Z M 254.027344 236.566406 L 238.722656 242.484375 C 237.140625 242.863281 236.363281 244.449219 236.363281 246.011719 L 236.363281 267.667969 C 236.363281 271.621094 233.222656 274.367188 229.679688 274.367188 L 212.015625 274.367188 C 209.65625 274.367188 208.097656 275.953125 208.097656 278.296875 L 208.097656 294.839844 L 152.722656 294.839844 L 152.722656 257.441406 C 152.722656 255.859375 151.945312 254.695312 150.761719 253.894531 C 118.175781 235.003906 115.816406 202.339844 123.675781 179.898438 C 142.121094 129.527344 205.734375 127.160156 232.441406 166.121094 C 241.863281 179.898438 245.382812 196.421875 241.863281 212.964844 C 241.464844 214.148438 241.863281 215.332031 242.644531 216.113281 Z M 87.148438 92.53125 C 87.148438 90.164062 89.128906 88.199219 91.46875 88.199219 C 93.832031 88.199219 95.789062 90.164062 95.789062 92.53125 C 95.789062 94.898438 93.832031 96.863281 91.46875 96.863281 C 89.128906 97.242188 87.148438 95.277344 87.148438 92.53125 Z M 140.160156 70.492188 C 142.523438 70.492188 144.480469 72.457031 144.480469 74.824219 C 144.480469 77.167969 142.523438 79.15625 140.160156 79.15625 C 137.820312 79.15625 135.839844 77.167969 135.839844 74.824219 C 135.839844 72.457031 137.820312 70.492188 140.160156 70.492188 Z M 186.890625 58.679688 C 189.253906 58.679688 191.210938 60.644531 191.210938 63.011719 C 191.210938 65.378906 189.253906 67.722656 186.890625 67.722656 C 184.53125 67.722656 182.570312 65.757812 182.570312 63.414062 C 182.570312 61.046875 184.152344 58.679688 186.890625 58.679688 Z M 221.039062 100.390625 C 223.398438 100.390625 225.359375 102.375 225.359375 104.722656 C 225.359375 107.089844 223.398438 109.054688 221.039062 109.054688 C 218.699219 109.054688 216.738281 107.089844 216.738281 104.722656 C 216.738281 102.375 218.296875 100.390625 221.039062 100.390625 Z M 288.195312 135.421875 C 290.554688 135.421875 292.515625 137.386719 292.515625 139.753906 C 292.515625 142.121094 290.554688 144.085938 288.195312 144.085938 C 285.832031 144.085938 283.875 142.121094 283.875 139.753906 C 283.472656 137.386719 285.433594 135.421875 288.195312 135.421875 Z M 288.195312 178.714844 C 290.554688 178.714844 292.515625 180.703125 292.515625 183.046875 C 292.515625 185.414062 290.554688 187.378906 288.195312 187.378906 C 285.832031 187.378906 283.875 185.414062 283.875 183.046875 C 283.472656 181.082031 285.433594 178.714844 288.195312 178.714844 Z M 302.71875 203.121094 C 297.214844 203.121094 292.894531 206.667969 290.933594 211.402344 L 280.332031 211.402344 L 268.949219 199.972656 C 268.167969 199.191406 267.390625 198.808594 266.210938 198.808594 L 251.285156 198.808594 C 251.285156 194.859375 250.886719 190.929688 250.105469 187.378906 L 276.8125 187.378906 C 278.371094 192.113281 283.09375 195.640625 288.574219 195.640625 C 295.253906 195.640625 300.757812 190.125 300.757812 183.449219 C 300.757812 176.75 295.253906 171.234375 288.574219 171.234375 C 283.09375 171.234375 278.773438 174.785156 276.8125 179.519531 L 248.144531 179.519531 C 246.964844 175.1875 245.003906 171.234375 243.042969 167.304688 L 266.589844 167.304688 C 267.769531 167.304688 268.546875 166.902344 269.351562 166.121094 L 283.875 151.164062 C 285.433594 151.964844 287.015625 151.964844 288.574219 151.964844 C 295.253906 151.964844 300.757812 146.453125 300.757812 139.753906 C 300.757812 133.078125 295.253906 127.5625 288.574219 127.5625 C 281.914062 127.5625 276.410156 133.078125 276.410156 139.753906 C 276.410156 142.121094 277.191406 144.085938 277.96875 146.050781 L 265.027344 159.445312 L 237.921875 159.445312 C 227.339844 144.867188 211.238281 134.640625 191.992188 131.894531 L 191.992188 109.054688 L 209.65625 109.054688 C 211.238281 113.785156 215.9375 117.3125 221.4375 117.3125 C 228.121094 117.3125 233.621094 111.820312 233.621094 105.125 C 233.621094 98.425781 228.121094 92.910156 221.4375 92.910156 C 215.9375 92.910156 211.617188 96.460938 209.65625 101.195312 L 188.070312 101.195312 C 185.710938 101.195312 184.152344 102.757812 184.152344 105.125 L 184.152344 131.089844 C 179.429688 131.089844 175.109375 131.089844 170.789062 131.894531 L 170.789062 97.242188 L 184.929688 75.203125 C 185.710938 75.203125 186.492188 75.605469 187.269531 75.605469 C 193.953125 75.605469 199.453125 70.089844 199.453125 63.414062 C 199.453125 56.714844 193.953125 51.203125 187.269531 51.203125 C 180.609375 51.203125 175.109375 56.714844 175.109375 63.414062 C 175.109375 66.539062 176.289062 69.308594 178.25 71.675781 L 163.726562 94.09375 C 163.324219 94.898438 162.945312 95.679688 162.945312 96.058594 L 162.945312 133.457031 C 156.265625 135.421875 150.382812 138.191406 144.882812 141.71875 L 144.882812 86.636719 C 149.582031 85.050781 153.125 80.316406 153.125 74.824219 C 153.125 68.125 147.621094 62.609375 140.941406 62.609375 C 134.28125 62.609375 128.777344 68.125 128.777344 74.824219 C 128.777344 80.316406 132.320312 84.648438 137.019531 86.636719 L 137.019531 147.636719 C 131.917969 151.964844 127.597656 157.078125 124.078125 162.59375 L 124.078125 120.863281 C 124.078125 119.679688 123.675781 118.898438 122.898438 118.117188 L 103.253906 98.425781 C 104.03125 96.863281 104.433594 94.898438 104.433594 92.910156 C 104.433594 86.234375 98.929688 80.71875 92.269531 80.71875 C 84.808594 80.316406 79.308594 85.832031 79.308594 92.53125 C 79.308594 99.230469 84.808594 104.722656 91.46875 104.722656 C 93.453125 104.722656 95.410156 104.339844 96.972656 103.539062 L 115.4375 122.046875 C 115.4375 136.203125 115.4375 164.9375 115.4375 179.117188 C 106.792969 205.484375 112.296875 239.714844 144.480469 259.40625 L 144.480469 298.769531 C 144.480469 301.117188 146.0625 302.699219 148.402344 302.699219 L 211.617188 302.699219 C 213.976562 302.699219 215.558594 301.117188 215.558594 298.769531 L 215.558594 282.628906 L 229.300781 282.628906 C 237.542969 282.628906 243.824219 275.953125 243.824219 268.070312 L 243.824219 249.179688 L 260.707031 242.484375 C 263.070312 241.703125 263.847656 238.933594 262.667969 236.96875 L 249.703125 212.964844 C 250.105469 211 250.105469 209.015625 250.507812 207.070312 L 263.847656 207.070312 L 275.230469 218.480469 C 276.011719 219.261719 276.8125 219.640625 277.96875 219.640625 L 290.554688 219.640625 C 292.113281 224.375 296.835938 227.925781 302.316406 227.925781 C 309 227.925781 314.5 222.410156 314.5 215.710938 C 314.878906 208.632812 309.398438 203.121094 302.71875 203.121094 " fill-opacity="1" fill-rule="nonzero"/></g><path fill="#ffffff" d="M 205.335938 242.863281 L 203.375 243.265625 C 201.816406 243.667969 200.632812 244.851562 200.234375 246.414062 C 199.855469 248 199.054688 249.964844 198.273438 251.546875 C 197.492188 252.710938 197.492188 254.695312 198.273438 255.859375 L 199.453125 257.441406 L 198.273438 258.625 L 196.714844 257.441406 C 195.535156 256.660156 193.574219 256.660156 192.394531 257.441406 C 190.8125 258.222656 189.253906 259.003906 187.269531 259.40625 C 185.710938 259.789062 184.53125 260.96875 184.152344 262.554688 L 183.75 264.519531 L 182.167969 264.519531 L 181.789062 262.554688 C 181.390625 260.96875 180.210938 259.789062 178.648438 259.40625 C 176.691406 259.003906 175.109375 258.222656 173.550781 257.441406 C 172.367188 256.660156 170.410156 256.660156 169.226562 257.441406 L 167.648438 258.625 L 166.464844 257.441406 L 167.648438 255.859375 C 168.425781 254.695312 168.425781 252.710938 167.648438 251.546875 C 166.867188 249.964844 166.085938 248.398438 165.6875 246.414062 C 165.285156 244.851562 164.105469 243.667969 162.546875 243.265625 L 160.585938 242.863281 L 160.585938 241.300781 L 162.546875 240.921875 C 164.105469 240.519531 165.285156 239.335938 165.6875 237.773438 C 166.085938 235.785156 166.867188 234.222656 167.648438 232.636719 C 168.425781 231.453125 168.425781 229.488281 167.648438 228.304688 L 166.464844 226.742188 L 167.648438 225.558594 L 169.226562 226.742188 C 170.410156 227.523438 172.367188 227.523438 173.550781 226.742188 C 175.109375 225.960938 176.691406 225.15625 178.648438 224.777344 C 180.210938 224.375 181.390625 223.191406 181.789062 221.628906 L 182.167969 219.640625 L 183.75 219.640625 L 184.152344 221.628906 C 184.53125 223.191406 185.710938 224.375 187.269531 224.777344 C 189.253906 225.15625 190.8125 225.960938 192.394531 226.742188 C 193.574219 227.523438 195.535156 227.523438 196.714844 226.742188 L 198.273438 225.558594 L 199.453125 226.742188 L 198.273438 228.304688 C 197.492188 229.488281 197.492188 231.453125 198.273438 232.636719 C 199.453125 234.222656 199.855469 235.785156 200.234375 237.773438 C 200.632812 239.335938 201.816406 240.519531 203.375 240.921875 L 205.335938 241.300781 Z M 209.65625 233.820312 L 206.917969 233.441406 C 206.515625 232.636719 206.136719 231.855469 205.734375 231.074219 L 207.292969 228.707031 C 208.476562 227.144531 208.097656 225.15625 206.917969 223.59375 L 201.011719 217.699219 C 199.855469 216.492188 197.492188 216.113281 195.914062 217.296875 L 193.574219 218.882812 C 192.773438 218.480469 191.992188 218.078125 191.210938 217.699219 L 190.8125 214.929688 C 190.433594 212.964844 188.851562 211.78125 186.890625 211.78125 L 178.648438 211.78125 C 176.691406 211.78125 175.109375 212.964844 174.707031 214.929688 L 174.328125 217.699219 C 173.550781 218.078125 172.746094 218.480469 171.96875 218.882812 L 169.605469 217.296875 C 168.046875 216.113281 166.085938 216.492188 164.507812 217.699219 L 158.625 223.59375 C 157.445312 224.777344 157.042969 227.144531 158.226562 228.707031 L 159.804688 231.074219 C 159.40625 231.855469 159.003906 232.636719 158.625 233.441406 L 155.863281 233.820312 C 153.902344 234.222656 152.722656 235.785156 152.722656 237.773438 L 152.722656 246.011719 C 152.722656 248 153.902344 249.5625 155.863281 249.964844 L 158.625 250.363281 C 159.003906 251.144531 159.40625 251.929688 159.804688 252.710938 L 158.226562 255.476562 C 157.042969 257.039062 157.445312 259.003906 158.625 260.589844 L 164.507812 266.484375 C 165.6875 267.667969 168.046875 268.070312 169.605469 266.886719 L 171.96875 265.300781 C 172.746094 265.703125 173.550781 266.082031 174.328125 266.484375 L 174.707031 269.230469 C 175.109375 271.21875 176.691406 272.402344 178.648438 272.402344 L 186.890625 272.402344 C 188.851562 272.402344 190.433594 271.21875 190.8125 269.230469 L 191.210938 266.484375 C 191.992188 266.082031 192.773438 265.703125 193.574219 265.300781 L 195.914062 266.886719 C 197.492188 268.070312 199.453125 267.667969 201.011719 266.484375 L 206.917969 260.589844 C 208.097656 259.40625 208.476562 257.039062 207.292969 255.476562 L 205.734375 253.109375 C 206.136719 252.328125 206.515625 251.546875 206.917969 250.746094 L 209.65625 250.363281 C 211.617188 249.964844 212.796875 248.398438 212.796875 246.414062 L 212.796875 238.152344 C 213.199219 235.785156 211.617188 234.222656 209.65625 233.820312 " fill-opacity="1" fill-rule="nonzero"/><path fill="#ffffff" d="M 182.972656 248 C 179.429688 248 177.070312 245.25 177.070312 242.105469 C 177.070312 238.933594 179.832031 236.1875 182.972656 236.1875 C 186.492188 236.1875 188.851562 238.933594 188.851562 242.105469 C 188.851562 245.25 186.113281 248 182.972656 248 Z M 182.972656 227.925781 C 175.109375 227.925781 169.226562 234.222656 169.226562 241.703125 C 169.226562 249.5625 175.507812 255.476562 182.972656 255.476562 C 190.8125 255.476562 196.714844 249.179688 196.714844 241.703125 C 196.714844 234.222656 190.8125 227.925781 182.972656 227.925781 " fill-opacity="1" fill-rule="nonzero"/><path fill="#ffffff" d="M 218.699219 182.265625 L 216.738281 182.644531 C 215.15625 183.046875 213.976562 184.230469 213.597656 185.792969 C 213.199219 187.378906 212.417969 189.34375 211.617188 190.929688 C 210.835938 192.113281 210.835938 194.078125 211.617188 195.261719 L 212.796875 196.824219 L 211.617188 198.007812 L 210.058594 196.824219 C 208.875 196.042969 206.917969 196.042969 205.734375 196.824219 C 204.152344 197.605469 202.59375 198.410156 200.632812 198.808594 C 199.054688 199.191406 197.871094 200.375 197.492188 201.9375 L 197.09375 203.921875 L 195.535156 203.921875 L 195.132812 201.9375 C 194.730469 200.375 193.574219 199.191406 191.992188 198.808594 C 190.03125 198.410156 188.472656 197.605469 186.890625 196.824219 C 185.710938 196.042969 183.75 196.042969 182.570312 196.824219 L 181.011719 198.007812 L 179.832031 196.824219 L 181.011719 195.261719 C 181.789062 194.078125 181.789062 192.113281 181.011719 190.929688 C 180.210938 189.34375 179.429688 187.78125 179.027344 185.792969 C 178.648438 184.230469 177.46875 183.046875 175.886719 182.644531 L 173.929688 182.265625 L 173.929688 180.703125 L 175.886719 180.300781 C 177.46875 179.898438 178.648438 178.714844 179.027344 177.152344 C 179.429688 175.1875 180.210938 173.601562 181.011719 172.039062 C 181.789062 170.855469 181.789062 168.890625 181.011719 167.707031 L 179.832031 166.121094 L 181.011719 164.9375 L 182.570312 166.121094 C 183.75 166.902344 185.308594 166.902344 186.890625 166.121094 C 188.472656 164.9375 190.03125 164.558594 191.992188 164.15625 C 193.574219 163.777344 194.730469 162.59375 195.132812 161.007812 L 195.535156 159.042969 L 197.09375 159.042969 L 197.492188 161.007812 C 197.871094 162.59375 199.054688 163.777344 200.632812 164.15625 C 202.59375 164.558594 204.152344 165.339844 205.734375 166.121094 C 206.917969 166.902344 208.875 166.902344 210.058594 166.121094 L 211.617188 164.9375 L 212.796875 166.121094 L 211.617188 167.707031 C 210.835938 168.890625 210.835938 170.855469 211.617188 172.039062 C 212.417969 173.601562 213.199219 175.1875 213.597656 177.152344 C 213.976562 178.714844 215.15625 179.898438 216.738281 180.300781 L 218.699219 180.703125 Z M 223.398438 173.601562 L 220.257812 172.820312 C 219.878906 172.039062 219.480469 171.234375 219.078125 170.453125 L 220.660156 168.085938 C 221.839844 166.523438 221.4375 164.558594 220.257812 162.972656 L 214.757812 157.078125 C 213.597656 155.894531 211.238281 155.496094 209.65625 156.679688 L 207.292969 158.261719 C 206.515625 157.859375 205.734375 157.480469 204.957031 157.078125 L 204.554688 154.3125 C 204.152344 152.347656 202.59375 151.164062 200.632812 151.164062 L 192.394531 151.164062 C 190.433594 151.164062 188.851562 152.347656 188.472656 154.3125 L 188.070312 157.078125 C 187.269531 157.480469 186.492188 157.859375 185.710938 158.261719 L 183.351562 156.679688 C 181.789062 155.496094 179.832031 155.894531 178.25 157.078125 L 172.367188 162.972656 C 171.1875 164.15625 170.789062 166.523438 171.96875 168.085938 L 173.550781 170.453125 C 173.148438 171.234375 172.746094 172.039062 172.367188 172.820312 L 169.605469 173.601562 C 167.648438 174.003906 166.464844 175.566406 166.464844 177.53125 L 166.464844 185.792969 C 166.464844 187.78125 167.648438 189.34375 169.605469 189.746094 L 172.367188 190.125 C 172.746094 190.929688 173.148438 191.710938 173.550781 192.492188 L 171.96875 194.859375 C 170.789062 196.421875 171.1875 198.410156 172.367188 199.972656 L 178.25 205.867188 C 179.429688 207.070312 181.789062 207.449219 183.351562 206.269531 L 185.308594 204.304688 C 186.113281 204.703125 186.890625 205.085938 187.671875 205.484375 L 188.070312 208.234375 C 188.472656 210.21875 190.03125 211.402344 191.992188 211.402344 L 200.234375 211.402344 C 202.195312 211.402344 203.773438 210.21875 204.152344 208.234375 L 204.554688 205.484375 C 205.335938 205.085938 206.136719 204.703125 206.917969 204.304688 L 209.277344 205.867188 C 210.835938 207.070312 212.796875 206.667969 214.378906 205.484375 L 220.257812 199.589844 C 221.4375 198.410156 221.839844 196.042969 220.660156 194.480469 L 219.480469 192.492188 C 219.878906 191.710938 220.257812 190.929688 220.660156 190.125 L 223.398438 189.746094 C 225.359375 189.34375 226.539062 187.78125 226.539062 185.792969 L 226.539062 177.53125 C 226.539062 175.566406 224.980469 174.003906 223.398438 173.601562 " fill-opacity="1" fill-rule="nonzero"/><path fill="#ffffff" d="M 196.3125 187.378906 C 192.773438 187.378906 190.433594 184.632812 190.433594 181.484375 C 190.433594 178.335938 193.171875 175.566406 196.3125 175.566406 C 199.855469 175.566406 202.195312 178.335938 202.195312 181.484375 C 202.195312 184.632812 199.855469 187.378906 196.3125 187.378906 Z M 196.3125 167.707031 C 188.472656 167.707031 182.570312 174.003906 182.570312 181.484375 C 182.570312 189.34375 188.851562 195.261719 196.3125 195.261719 C 203.773438 195.261719 210.058594 188.941406 210.058594 181.484375 C 210.457031 173.601562 204.152344 167.707031 196.3125 167.707031 " fill-opacity="1" fill-rule="nonzero"/></svg>